# Blender v2.79 (sub 0) OBJ File: ''
# www.blender.org
mtllib 01.mtl
o sun_Icosphere
v 2.968171 2.792684 0.728793
v 3.734637 3.378205 1.285656
v 2.675413 3.378205 1.629825
v 2.020769 3.378209 0.728793
v 2.675413 3.378205 -0.172240
v 3.734637 3.378205 0.171929
v 3.260929 4.325622 1.629825
v 2.201705 4.325621 1.285656
v 2.201705 4.325621 0.171929
v 3.260929 4.325622 -0.172240
v 3.915574 4.325617 0.728793
v 2.968171 4.911142 0.728793
v 2.796093 2.950875 1.258402
v 3.418685 2.950875 1.056107
v 3.246609 3.295036 1.585721
v 3.869202 3.295038 0.728793
v 3.418685 2.950875 0.401479
v 2.411303 2.950878 0.728793
v 2.239221 3.295038 1.258404
v 2.796093 2.950875 0.199183
v 2.239221 3.295038 0.199181
v 3.246609 3.295036 -0.128136
v 3.975559 3.851913 1.056108
v 3.975559 3.851913 0.401477
v 2.968171 3.851913 1.788022
v 3.590771 3.851913 1.585727
v 1.960783 3.851913 1.056108
v 2.345571 3.851913 1.585727
v 2.345571 3.851913 -0.128142
v 1.960783 3.851913 0.401477
v 3.590771 3.851913 -0.128142
v 2.968171 3.851913 -0.330437
v 3.697122 4.408788 1.258404
v 2.689733 4.408790 1.585721
v 2.067140 4.408788 0.728793
v 2.689733 4.408790 -0.128136
v 3.697122 4.408788 0.199181
v 3.140249 4.752951 1.258402
v 3.525040 4.752948 0.728793
v 2.517657 4.752951 1.056107
v 2.517657 4.752951 0.401479
v 3.140249 4.752951 0.199183
v 2.137707 4.707223 0.839187
v 1.818906 5.026024 0.839187
v 2.137707 4.707223 0.688903
v 1.818906 5.026024 0.688903
v 2.243974 4.813490 0.839187
v 1.925173 5.132291 0.839187
v 2.243974 4.813490 0.688903
v 1.925173 5.132291 0.688903
v 4.054526 2.514003 0.839187
v 3.756185 2.852029 0.839187
v 4.054526 2.514003 0.688903
v 3.756185 2.852029 0.688903
v 4.167201 2.613450 0.839187
v 3.868861 2.951476 0.839187
v 4.167201 2.613450 0.688903
v 3.868861 2.951476 0.688903
v 1.673833 2.781432 0.839187
v 2.014818 3.076385 0.839187
v 1.673833 2.781432 0.688903
v 2.014818 3.076385 0.688903
v 1.772151 2.667770 0.839187
v 2.113136 2.962723 0.839187
v 1.772151 2.667770 0.688903
v 2.113136 2.962723 0.688903
v 3.880912 4.687587 0.839187
v 4.218938 4.985928 0.839187
v 3.880912 4.687587 0.688903
v 4.218938 4.985928 0.688903
v 3.980359 4.574912 0.839187
v 4.318385 4.873252 0.839187
v 3.980359 4.574912 0.688903
v 4.318385 4.873252 0.688903
v 4.229570 3.886842 0.839187
v 4.680424 3.886842 0.839187
v 4.229570 3.886842 0.688903
v 4.680424 3.886842 0.688903
v 4.229571 3.736557 0.839187
v 4.680424 3.736557 0.839187
v 4.229570 3.736557 0.688903
v 4.680424 3.736557 0.688903
v 1.313470 3.918185 0.839188
v 1.764301 3.913687 0.839188
v 1.313470 3.918185 0.688903
v 1.764301 3.913687 0.688903
v 1.311971 3.767908 0.839188
v 1.762802 3.763410 0.839188
v 1.311971 3.767908 0.688903
v 1.762802 3.763410 0.688903
v 2.921424 2.142319 0.839187
v 2.921424 2.593172 0.839187
v 2.921424 2.142319 0.688903
v 2.921424 2.593172 0.688903
v 3.071709 2.142318 0.839187
v 3.071709 2.593172 0.839187
v 3.071709 2.142318 0.688903
v 3.071709 2.593172 0.688903
v 2.921424 5.059325 0.839187
v 2.921424 5.510179 0.839187
v 2.921424 5.059325 0.688903
v 2.921424 5.510179 0.688903
v 3.071709 5.059325 0.839187
v 3.071709 5.510179 0.839187
v 3.071709 5.059325 0.688903
v 3.071709 5.510179 0.688903
vn 0.1024 -0.9435 0.3151
vn 0.7002 -0.6617 0.2680
vn -0.2680 -0.9435 0.1947
vn -0.2680 -0.9435 -0.1947
vn 0.1024 -0.9435 -0.3151
vn 0.9050 -0.3304 0.2680
vn 0.0247 -0.3304 0.9435
vn -0.8897 -0.3304 0.3151
vn -0.5746 -0.3304 -0.7488
vn 0.5346 -0.3304 -0.7779
vn 0.8026 -0.1256 0.5831
vn -0.3066 -0.1256 0.9435
vn -0.9921 -0.1256 0.0000
vn -0.3066 -0.1256 -0.9435
vn 0.8026 -0.1256 -0.5831
vn 0.4089 0.6617 0.6284
vn -0.4713 0.6617 0.5831
vn -0.7002 0.6617 -0.2680
vn 0.0385 0.6617 -0.7488
vn 0.7240 0.6617 -0.1947
vn 0.2680 0.9435 -0.1947
vn 0.4911 0.7947 -0.3568
vn 0.4089 0.6617 -0.6284
vn -0.1024 0.9435 -0.3151
vn -0.1876 0.7947 -0.5773
vn -0.4713 0.6617 -0.5831
vn -0.3313 0.9435 0.0000
vn -0.6071 0.7947 0.0000
vn -0.7002 0.6617 0.2680
vn -0.1024 0.9435 0.3151
vn -0.1876 0.7947 0.5773
vn 0.0385 0.6617 0.7488
vn 0.2680 0.9435 0.1947
vn 0.4911 0.7947 0.3568
vn 0.7240 0.6617 0.1947
vn 0.8897 0.3304 -0.3151
vn 0.7947 0.1876 -0.5773
vn 0.5746 0.3304 -0.7488
vn -0.0247 0.3304 -0.9435
vn -0.3035 0.1876 -0.9342
vn -0.5346 0.3304 -0.7779
vn -0.9050 0.3304 -0.2680
vn -0.9822 0.1876 0.0000
vn -0.9050 0.3304 0.2680
vn -0.5346 0.3304 0.7779
vn -0.3035 0.1876 0.9342
vn -0.0247 0.3304 0.9435
vn 0.5746 0.3304 0.7488
vn 0.7947 0.1876 0.5773
vn 0.8897 0.3304 0.3151
vn 0.3066 0.1256 -0.9435
vn 0.3035 -0.1876 -0.9342
vn 0.0247 -0.3304 -0.9435
vn -0.8026 0.1256 -0.5831
vn -0.7947 -0.1876 -0.5773
vn -0.8897 -0.3304 -0.3151
vn -0.8026 0.1256 0.5831
vn -0.7947 -0.1876 0.5773
vn -0.5746 -0.3304 0.7488
vn 0.3066 0.1256 0.9435
vn 0.3035 -0.1876 0.9342
vn 0.5346 -0.3304 0.7779
vn 0.9921 0.1256 0.0000
vn 0.9822 -0.1876 0.0000
vn 0.9050 -0.3304 -0.2680
vn 0.4713 -0.6617 -0.5831
vn 0.1876 -0.7947 -0.5773
vn -0.0385 -0.6617 -0.7488
vn -0.4089 -0.6617 -0.6284
vn -0.4911 -0.7947 -0.3568
vn -0.7240 -0.6617 -0.1947
vn -0.7240 -0.6617 0.1947
vn -0.4911 -0.7947 0.3568
vn -0.4089 -0.6617 0.6284
vn 0.7002 -0.6617 -0.2680
vn 0.6071 -0.7947 0.0000
vn 0.3313 -0.9435 0.0000
vn -0.0385 -0.6617 0.7488
vn 0.1876 -0.7947 0.5773
vn 0.4713 -0.6617 0.5831
vn -0.7071 -0.7071 0.0000
vn 0.0000 0.0000 -1.0000
vn 0.7071 0.7071 0.0000
vn 0.0000 0.0000 1.0000
vn 0.7071 -0.7071 0.0000
vn -0.7071 0.7071 0.0000
vn -0.7497 -0.6617 0.0000
vn 0.7497 0.6617 0.0000
vn 0.6617 -0.7497 0.0000
vn -0.6617 0.7497 0.0000
vn -0.6542 0.7563 0.0000
vn 0.6542 -0.7563 0.0000
vn -0.7563 -0.6542 0.0000
vn 0.7563 0.6542 0.0000
vn 0.0000 1.0000 0.0000
vn -0.0000 -1.0000 -0.0000
vn -1.0000 0.0000 0.0000
vn 1.0000 0.0000 -0.0000
vn 0.0100 1.0000 0.0000
vn -0.0100 -1.0000 0.0000
vn -1.0000 0.0100 0.0000
vn 1.0000 -0.0100 0.0000
usemtl None
s off
f 1//1 14//1 13//1
f 2//2 14//2 16//2
f 1//3 13//3 18//3
f 1//4 18//4 20//4
f 1//5 20//5 17//5
f 2//6 16//6 23//6
f 3//7 15//7 25//7
f 4//8 19//8 27//8
f 5//9 21//9 29//9
f 6//10 22//10 31//10
f 2//11 23//11 26//11
f 3//12 25//12 28//12
f 4//13 27//13 30//13
f 5//14 29//14 32//14
f 6//15 31//15 24//15
f 7//16 33//16 38//16
f 8//17 34//17 40//17
f 9//18 35//18 41//18
f 10//19 36//19 42//19
f 11//20 37//20 39//20
f 39//21 42//21 12//21
f 39//22 37//22 42//22
f 37//23 10//23 42//23
f 42//24 41//24 12//24
f 42//25 36//25 41//25
f 36//26 9//26 41//26
f 41//27 40//27 12//27
f 41//28 35//28 40//28
f 35//29 8//29 40//29
f 40//30 38//30 12//30
f 40//31 34//31 38//31
f 34//32 7//32 38//32
f 38//33 39//33 12//33
f 38//34 33//34 39//34
f 33//35 11//35 39//35
f 24//36 37//36 11//36
f 24//37 31//37 37//37
f 31//38 10//38 37//38
f 32//39 36//39 10//39
f 32//40 29//40 36//40
f 29//41 9//41 36//41
f 30//42 35//42 9//42
f 30//43 27//43 35//43
f 27//44 8//44 35//44
f 28//45 34//45 8//45
f 28//46 25//46 34//46
f 25//47 7//47 34//47
f 26//48 33//48 7//48
f 26//49 23//49 33//49
f 23//50 11//50 33//50
f 31//51 32//51 10//51
f 31//52 22//52 32//52
f 22//53 5//53 32//53
f 29//54 30//54 9//54
f 29//55 21//55 30//55
f 21//56 4//56 30//56
f 27//57 28//57 8//57
f 27//58 19//58 28//58
f 19//59 3//59 28//59
f 25//60 26//60 7//60
f 25//61 15//61 26//61
f 15//62 2//62 26//62
f 23//63 24//63 11//63
f 23//64 16//64 24//64
f 16//65 6//65 24//65
f 17//66 22//66 6//66
f 17//67 20//67 22//67
f 20//68 5//68 22//68
f 20//69 21//69 5//69
f 20//70 18//70 21//70
f 18//71 4//71 21//71
f 18//72 19//72 4//72
f 18//73 13//73 19//73
f 13//74 3//74 19//74
f 16//75 17//75 6//75
f 16//76 14//76 17//76
f 14//77 1//77 17//77
f 13//78 15//78 3//78
f 13//79 14//79 15//79
f 14//80 2//80 15//80
f 43//81 44//81 46//81 45//81
f 45//82 46//82 50//82 49//82
f 49//83 50//83 48//83 47//83
f 47//84 48//84 44//84 43//84
f 45//85 49//85 47//85 43//85
f 50//86 46//86 44//86 48//86
f 51//87 52//87 54//87 53//87
f 53//82 54//82 58//82 57//82
f 57//88 58//88 56//88 55//88
f 55//84 56//84 52//84 51//84
f 53//89 57//89 55//89 51//89
f 58//90 54//90 52//90 56//90
f 59//91 60//91 62//91 61//91
f 61//82 62//82 66//82 65//82
f 65//92 66//92 64//92 63//92
f 63//84 64//84 60//84 59//84
f 61//93 65//93 63//93 59//93
f 66//94 62//94 60//94 64//94
f 67//90 68//90 70//90 69//90
f 69//82 70//82 74//82 73//82
f 73//89 74//89 72//89 71//89
f 71//84 72//84 68//84 67//84
f 69//87 73//87 71//87 67//87
f 74//88 70//88 68//88 72//88
f 75//95 76//95 78//95 77//95
f 77//82 78//82 82//82 81//82
f 81//96 82//96 80//96 79//96
f 79//84 80//84 76//84 75//84
f 77//97 81//97 79//97 75//97
f 82//98 78//98 76//98 80//98
f 83//99 84//99 86//99 85//99
f 85//82 86//82 90//82 89//82
f 89//100 90//100 88//100 87//100
f 87//84 88//84 84//84 83//84
f 85//101 89//101 87//101 83//101
f 90//102 86//102 84//102 88//102
f 91//97 92//97 94//97 93//97
f 93//82 94//82 98//82 97//82
f 97//98 98//98 96//98 95//98
f 95//84 96//84 92//84 91//84
f 93//96 97//96 95//96 91//96
f 98//95 94//95 92//95 96//95
f 99//97 100//97 102//97 101//97
f 101//82 102//82 106//82 105//82
f 105//98 106//98 104//98 103//98
f 103//84 104//84 100//84 99//84
f 101//96 105//96 103//96 99//96
f 106//95 102//95 100//95 104//95
