# Blender v2.79 (sub 0) OBJ File: ''
# www.blender.org
mtllib 10.mtl
o cloud
v 3.159698 5.424981 -1.819628
v 3.345529 6.066237 -1.379630
v 3.941814 5.776162 -1.502233
v 3.493976 4.463227 -1.672038
v 3.853281 4.146756 -1.084614
v 2.928658 4.249049 -1.285158
v 4.459759 5.341034 -1.062890
v 4.114301 4.933160 -1.638549
v 3.902598 6.127321 -0.742856
v 4.370569 4.661601 -0.901921
v 3.952380 4.206284 -0.493856
v 3.507015 4.210818 -0.148644
v 3.575726 4.038610 -0.739280
v 2.801753 4.188675 -0.599866
v 3.182504 4.046055 -0.779172
v 2.383876 4.831324 -1.168320
v 3.018788 6.073933 -1.266669
v 2.468343 5.391043 -1.338942
v 2.992912 4.871184 -1.760076
v 4.076254 4.169177 1.226901
v 4.240842 4.608526 2.021496
v 3.936122 4.152402 1.616946
v 4.294096 5.826720 1.710513
v 4.061211 5.307664 2.312721
v 4.534369 4.879480 1.718943
v 3.877638 6.143604 1.439384
v 3.890999 5.972147 1.934650
v 3.304016 4.220695 1.929241
v 3.179780 4.589741 2.248642
v 3.181824 5.916721 2.017758
v 3.239506 5.428794 2.340340
v 2.733030 5.276572 2.085690
v 2.673084 4.544854 1.742026
v 3.089916 4.112624 1.137547
v 3.509030 4.027666 1.313742
v 3.498159 4.151108 0.757051
v 1.103497 4.379538 -0.485206
v 1.712736 4.131223 0.285881
v 0.990713 4.039073 0.351962
v 1.325364 5.318161 -0.717283
v 1.619402 4.452638 -0.403259
v 0.981029 4.158960 0.971335
v 0.976462 4.413862 1.215173
v 0.325027 4.846977 1.055250
v 0.517601 5.472463 1.196517
v 0.042658 5.159500 0.264851
v 1.035041 6.217218 0.483190
v 0.510817 6.010298 0.134971
v 0.504877 5.895393 0.845945
v 0.336427 4.413301 0.347697
v 1.935198 4.539945 -0.811340
v 2.420971 3.908321 -0.060014
v 0.553257 4.404528 -0.181799
v 0.589213 5.353417 -0.589225
v 1.103850 5.962091 -0.349456
v 5.692100 4.488617 -0.282348
v 5.894027 4.268366 0.238260
v 5.429050 4.185174 0.100098
v 5.594169 5.646472 0.016775
v 5.937083 5.515228 0.039766
v 5.465105 5.250381 -0.398029
v 5.464620 4.139889 0.531117
v 5.824510 4.953446 -0.354373
v 6.277779 4.934371 0.235826
v 5.936163 5.454738 0.787190
v 5.618811 5.706769 0.542507
v 5.895196 4.395754 0.800708
v 6.165446 4.970592 0.752690
v 5.699611 4.829141 1.176395
v 5.470961 5.232094 1.181143
v 5.235536 4.444907 1.003657
v 5.139574 4.178309 0.497746
v 5.210913 4.404362 -0.211994
v 4.358150 6.717661 0.509942
v 4.416132 6.548639 -0.387428
v 3.979284 6.683388 0.102044
v 4.698980 5.882442 -0.877035
v 5.101389 4.831950 -0.742882
v 5.203795 6.053314 -0.460220
v 4.438030 4.042121 -0.318114
v 5.414512 6.104222 0.030379
v 4.935678 6.581525 0.481298
v 5.133636 6.245463 1.073822
v 4.505220 3.902999 0.187932
v 4.733469 4.100546 1.029795
v 4.160521 3.923370 0.743639
v 4.988638 4.742781 1.487662
v 5.076674 5.731354 1.523740
v 4.345262 6.417665 1.300823
v 3.847445 3.938644 0.187044
v 2.146599 6.806841 -0.832474
v 2.750086 7.267087 -0.128705
v 3.436013 6.915824 -0.544340
v 3.056425 7.298523 0.554428
v 4.010303 6.692470 0.733688
v 2.994974 3.917229 0.160333
v 3.198080 6.686250 1.647661
v 3.540894 6.139350 1.757088
v 2.344732 3.987984 0.972395
v 2.277574 6.006220 2.058090
v 2.728129 7.200077 1.127864
v 1.855248 6.772440 1.465828
v 2.000654 4.776814 1.811425
v 1.355434 6.154763 1.473003
v 1.231368 5.651173 1.388597
v 1.580119 4.551374 1.247341
v 2.241589 7.298375 0.461811
v 1.373062 6.800503 0.419631
v 1.619413 6.932525 -0.207390
v 1.946522 5.748766 -1.255940
v 1.028012 4.954640 1.458944
v 0.695354 2.625518 0.338385
v 1.105778 3.753149 0.338385
v 0.695354 2.625518 0.238385
v 1.105778 3.753149 0.238385
v 0.789323 2.591316 0.338385
v 1.199747 3.718947 0.338385
v 0.789323 2.591316 0.238385
v 1.199747 3.718947 0.238385
v 5.041725 2.646117 0.667968
v 5.452149 3.773748 0.667968
v 5.041725 2.646117 0.567968
v 5.452149 3.773748 0.567968
v 5.135694 2.611915 0.667968
v 5.546118 3.739546 0.667968
v 5.135694 2.611915 0.567968
v 5.546118 3.739546 0.567968
v 3.813174 1.878860 0.008802
v 4.497214 3.758245 0.008802
v 3.813174 1.878860 -0.091198
v 4.497214 3.758245 -0.091198
v 3.907143 1.844658 0.008802
v 4.591183 3.724044 0.008802
v 3.907143 1.844658 -0.091198
v 4.591183 3.724044 -0.091198
v 1.526694 1.899459 -0.361978
v 2.210735 3.778844 -0.361978
v 1.526694 1.899459 -0.461978
v 2.210735 3.778844 -0.461978
v 1.620664 1.865257 -0.361978
v 2.304704 3.744642 -0.361978
v 1.620664 1.865257 -0.461978
v 2.304704 3.744643 -0.461978
v 2.618437 1.858261 0.976951
v 3.302477 3.737647 0.976951
v 2.618437 1.858261 0.876951
v 3.302477 3.737647 0.876951
v 2.712406 1.824059 0.976951
v 3.396446 3.703445 0.976951
v 2.712406 1.824059 0.876951
v 3.396446 3.703445 0.876951
vn -0.9397 0.3420 0.0000
vn 0.0000 0.0000 -1.0000
vn 0.9397 -0.3420 0.0000
vn 0.0000 0.0000 1.0000
vn -0.3420 -0.9397 0.0000
vn 0.3420 0.9397 0.0000
vn 0.0936 0.5447 -0.8334
vn 0.0063 -0.8787 -0.4773
vn 0.7404 0.2522 -0.6230
vn 0.4918 -0.6046 -0.6266
vn 0.7386 0.6256 -0.2512
vn 0.8968 -0.2100 -0.3894
vn 0.2204 -0.9292 0.2966
vn -0.1868 -0.9227 0.3373
vn -0.4097 -0.8989 -0.1551
vn -0.7355 -0.6493 -0.1934
vn -0.5140 0.4889 -0.7048
vn -0.6884 -0.1144 -0.7162
vn -0.3164 -0.5547 -0.7695
vn 0.0700 -0.1275 -0.9894
vn 0.7063 -0.6713 0.2249
vn 0.8335 0.2160 0.5085
vn 0.4595 0.8430 0.2795
vn 0.5510 0.5148 0.6568
vn 0.2384 -0.7287 0.6420
vn 0.2031 -0.3316 0.9213
vn 0.0614 0.5054 0.8607
vn 0.1098 0.5572 0.8231
vn -0.6686 -0.2705 0.6927
vn -0.2757 -0.9396 0.2028
vn -0.1072 -0.9711 -0.2132
vn 0.0848 -0.9269 -0.3655
vn 0.1889 -0.2776 -0.9419
vn 0.1414 -0.9715 0.1903
vn -0.5388 -0.5874 0.6039
vn -0.8992 0.1875 0.3954
vn -0.4423 0.8859 0.1395
vn -0.6409 -0.6591 0.3936
vn -0.4910 -0.8567 0.1581
vn -0.8692 0.4892 0.0718
vn -0.3971 -0.8308 -0.3900
vn -0.8594 -0.3767 -0.3457
vn -0.8153 0.3822 -0.4350
vn -0.2571 -0.8826 -0.3936
vn -0.4667 -0.3339 -0.8189
vn -0.1311 0.4573 -0.8796
vn 0.2881 -0.8367 -0.4657
vn 0.2938 0.6440 -0.7064
vn 0.2091 -0.9706 -0.1192
vn 0.7506 -0.3047 -0.5863
vn 0.7708 0.2551 -0.5837
vn 0.7592 -0.4392 -0.4803
vn 0.8554 0.5162 0.0428
vn 0.5889 0.8055 0.0659
vn 0.8613 -0.4959 0.1105
vn 0.8958 0.4124 0.1658
vn 0.8895 -0.3997 0.2213
vn 0.6915 -0.2691 0.6704
vn 0.6134 0.2368 0.7534
vn 0.1459 0.7775 0.6117
vn -0.1515 -0.8623 0.4832
vn -0.1072 -0.9897 -0.0951
vn -0.1111 -0.1815 -0.9771
vn 0.1028 0.9787 -0.1777
vn 0.4943 0.0788 -0.8657
vn 0.8238 -0.3462 -0.4488
vn 0.6041 0.1312 -0.7861
vn 0.5982 0.1327 -0.7903
vn 0.5970 0.1330 -0.7911
vn 0.4387 -0.8680 -0.2324
vn 0.8489 0.3451 -0.4004
vn 0.2184 0.9615 -0.1670
vn 0.9266 0.3662 -0.0854
vn 0.7536 0.6471 0.1153
vn 0.3427 -0.9310 0.1255
vn 0.2138 -0.9624 0.1679
vn 0.7292 -0.3506 0.5877
vn 0.5925 -0.0820 0.8014
vn 0.2314 0.9084 0.3483
vn 0.4354 -0.0715 0.8974
vn 0.2396 0.0694 0.9684
vn 0.0450 -0.8872 0.4591
vn -0.0541 -0.9985 0.0030
vn -0.3102 -0.8675 -0.3888
vn 0.0525 0.6058 -0.7939
vn 0.0618 0.8102 -0.5828
vn 0.4341 0.4529 -0.7787
vn 0.5469 0.8311 -0.1005
vn 0.2457 -0.9548 0.1671
vn 0.6390 0.5149 0.5714
vn 0.5378 0.6135 0.5783
vn 0.1226 -0.9754 0.1831
vn -0.0137 -0.9970 0.0759
vn 0.3650 0.3972 0.8420
vn 0.0513 0.0697 0.9962
vn -0.0544 0.6851 0.7264
vn -0.0518 -0.4211 0.9056
vn -0.4526 0.3756 0.8087
vn -0.5005 -0.0218 0.8655
vn -0.2758 -0.9597 0.0537
vn -0.4986 -0.8174 0.2884
vn -0.4908 0.8351 0.2486
vn -0.7261 0.5916 0.3505
vn -0.8483 0.4826 -0.2180
vn -0.7057 0.1525 -0.6919
vn -0.6601 -0.4441 -0.6058
vn -0.6274 0.3887 -0.6747
vn -0.2380 0.8937 -0.3804
vn -0.1271 0.3892 -0.9123
vn -0.9330 0.1774 0.3132
vn 0.1328 -0.1051 -0.9856
vn 0.2854 0.2096 -0.9352
vn -0.0074 0.9960 -0.0891
vn 0.3402 0.8601 -0.3802
vn 0.0114 -0.9568 -0.2905
vn 0.7052 -0.5496 -0.4479
vn 0.7133 -0.6992 -0.0492
vn 0.3918 -0.9196 0.0269
vn -0.0460 -0.9604 0.2747
vn -0.6110 -0.4395 -0.6584
vn -0.5716 0.0844 -0.8162
vn -0.2498 0.5960 -0.7631
vn -0.0247 -0.9320 -0.3615
vn 0.2051 -0.9547 -0.2157
vn 0.2487 -0.9674 0.0477
vn 0.7504 -0.0804 0.6560
vn 0.2786 0.9099 0.3075
vn 0.0532 -0.9476 0.3149
vn 0.1762 -0.6096 0.7729
vn 0.0195 0.7468 0.6647
vn 0.0172 -0.1098 0.9938
vn -0.4319 -0.0675 0.8994
vn -0.5054 0.4335 0.7461
vn -0.5038 -0.6560 0.5620
vn -0.5000 -0.8296 0.2485
vn 0.1938 -0.8788 -0.4361
vn 0.3570 -0.8369 0.4150
vn 0.0459 -0.4142 0.9090
vn 0.1178 -0.6853 0.7186
vn 0.3525 -0.0084 0.9358
vn -0.1292 0.8280 0.5457
vn -0.2977 0.1816 0.9372
vn -0.4923 -0.0447 0.8693
vn -0.4296 -0.3368 0.8379
vn -0.3443 0.5930 0.7279
vn -0.8910 0.2735 0.3623
vn -0.9200 -0.3406 0.1940
vn -0.4870 -0.8535 -0.1853
vn -0.8011 -0.2103 -0.5604
vn -0.1700 0.9382 -0.3015
vn -0.4582 0.6331 -0.6239
vn -0.1772 -0.1966 -0.9644
vn -0.0052 -0.1517 -0.9884
vn 0.4614 0.4457 -0.7671
vn 0.3619 0.9241 -0.1229
vn 0.4042 -0.8923 0.2012
vn 0.1970 -0.5899 0.7831
vn 0.5325 0.2928 0.7942
vn 0.1177 -0.8073 0.5782
vn -0.2369 -0.1457 0.9605
vn -0.4109 -0.8559 -0.3139
vn 0.0525 -0.7996 -0.5983
vn 0.0328 -0.6836 -0.7291
vn 0.2620 -0.2549 -0.9308
vn 0.3027 -0.6360 -0.7098
vn 0.3436 0.6465 -0.6812
vn 0.6044 0.1312 -0.7858
vn 0.4004 -0.6716 -0.6235
vn 0.4830 0.8151 -0.3197
vn 0.5137 0.8024 -0.3039
vn 0.4969 -0.8177 -0.2908
vn 0.8409 0.2360 -0.4870
vn 0.7991 0.5857 0.1358
vn 0.8390 0.3255 0.4361
vn 0.5493 -0.7777 0.3056
vn 0.8198 0.3230 0.4728
vn 0.4639 -0.6290 0.6238
vn 0.3026 0.8689 0.3917
vn 0.3397 0.5978 0.7261
vn 0.2572 0.5354 0.8044
vn 0.1996 -0.6202 0.7586
vn 0.1619 -0.6304 0.7592
vn -0.0944 0.5727 0.8143
vn 0.1599 0.9221 0.3524
vn -0.2939 0.7805 0.5518
vn -0.2919 -0.8721 0.3927
vn -0.3185 -0.9354 0.1535
vn -0.5873 -0.8073 -0.0590
vn -0.1684 -0.9083 -0.3830
vn -0.0519 -0.9647 -0.2583
vn -0.3138 0.8060 -0.5020
vn 0.1551 -0.9172 -0.3669
vn 0.1233 0.6103 -0.7825
vn 0.2736 -0.8817 -0.3844
vn 0.7305 0.5381 -0.4205
vn 0.3487 0.9159 -0.1985
vn 0.4723 -0.8798 -0.0534
vn 0.4270 0.9036 -0.0340
vn 0.4402 0.8082 0.3912
vn 0.4402 0.8084 0.3908
vn 0.4403 0.8082 0.3910
vn 0.4408 0.8050 0.3972
vn 0.0062 -0.8114 0.5845
vn 0.0827 0.4305 0.8988
vn -0.0719 0.5849 0.8079
vn -0.1950 -0.7532 0.6282
vn -0.2679 -0.1311 0.9545
vn -0.0183 0.9871 0.1590
vn -0.5405 -0.0468 0.8400
vn -0.3507 -0.7498 0.5611
vn -0.2995 0.8877 0.3498
vn -0.7010 -0.3051 0.6446
vn -0.8125 0.5030 0.2947
vn -0.4968 0.8678 -0.0125
vn -0.8517 0.4678 -0.2361
vn -0.4122 -0.2793 -0.8672
vn -0.2559 0.9283 -0.2696
vn -0.6437 0.4342 -0.6302
vn -0.5013 -0.2945 -0.8136
vn -0.1101 -0.6977 -0.7079
vn -0.1923 -0.8089 -0.5557
vn 0.0053 0.9988 -0.0483
vn -0.0550 0.1488 -0.9873
vn -0.0789 0.9968 -0.0105
vn 0.7626 -0.6199 0.1848
vn -0.0519 0.3447 -0.9373
usemtl None
s off
f 112//1 113//1 115//1 114//1
f 114//2 115//2 119//2 118//2
f 118//3 119//3 117//3 116//3
f 116//4 117//4 113//4 112//4
f 114//5 118//5 116//5 112//5
f 119//6 115//6 113//6 117//6
f 120//1 121//1 123//1 122//1
f 122//2 123//2 127//2 126//2
f 126//3 127//3 125//3 124//3
f 124//4 125//4 121//4 120//4
f 122//5 126//5 124//5 120//5
f 127//6 123//6 121//6 125//6
f 128//1 129//1 131//1 130//1
f 130//2 131//2 135//2 134//2
f 134//3 135//3 133//3 132//3
f 132//4 133//4 129//4 128//4
f 130//5 134//5 132//5 128//5
f 135//6 131//6 129//6 133//6
f 136//1 137//1 139//1 138//1
f 138//2 139//2 143//2 142//2
f 142//3 143//3 141//3 140//3
f 140//4 141//4 137//4 136//4
f 138//5 142//5 140//5 136//5
f 143//6 139//6 137//6 141//6
f 144//1 145//1 147//1 146//1
f 146//2 147//2 151//2 150//2
f 150//3 151//3 149//3 148//3
f 148//4 149//4 145//4 144//4
f 146//5 150//5 148//5 144//5
f 151//6 147//6 145//6 149//6
s 1
f 1//7 2//7 3//7
f 4//8 5//8 6//8
f 3//9 7//9 8//9
f 8//10 5//10 4//10
f 3//11 9//11 7//11
f 8//12 7//12 10//12
f 11//13 12//13 13//13
f 12//14 14//14 15//14
f 15//15 14//15 6//15
f 16//16 6//16 14//16
f 17//17 1//17 18//17
f 18//18 19//18 16//18
f 6//19 19//19 4//19
f 1//20 4//20 19//20
f 20//21 21//21 22//21
f 23//22 24//22 25//22
f 26//23 27//23 23//23
f 23//24 27//24 24//24
f 21//25 28//25 22//25
f 24//26 29//26 21//26
f 24//27 27//27 30//27
f 30//28 31//28 24//28
f 29//29 32//29 33//29
f 28//30 34//30 35//30
f 34//31 36//31 35//31
f 37//32 38//32 39//32
f 40//33 41//33 37//33
f 42//34 39//34 38//34
f 43//35 44//35 42//35
f 45//36 46//36 44//36
f 47//37 48//37 49//37
f 44//38 50//38 42//38
f 42//39 50//39 39//39
f 49//40 48//40 46//40
f 51//41 52//41 38//41 41//41
f 50//42 46//42 53//42
f 48//43 54//43 46//43
f 39//44 53//44 37//44
f 54//45 37//45 53//45
f 55//46 40//46 54//46
f 56//47 57//47 58//47
f 59//48 60//48 61//48
f 57//49 62//49 58//49
f 63//50 64//50 56//50
f 60//51 64//51 63//51
f 56//52 64//52 57//52
f 60//53 65//53 64//53
f 66//54 65//54 60//54
f 57//55 64//55 67//55
f 65//56 68//56 64//56
f 64//57 68//57 67//57
f 67//58 68//58 69//58
f 65//59 69//59 68//59
f 66//60 70//60 65//60
f 71//61 72//61 62//61
f 72//62 58//62 62//62
f 61//63 56//63 73//63
f 74//64 75//64 76//64
f 7//65 77//65 78//65
f 78//66 61//66 73//66
f 78//67 79//68 61//69
f 73//70 72//70 80//70
f 81//71 59//71 79//71
f 74//72 82//72 75//72
f 81//73 66//73 59//73
f 82//74 83//74 81//74
f 84//75 72//75 85//75
f 84//76 85//76 86//76
f 71//77 70//77 87//77
f 70//78 88//78 87//78
f 82//79 74//79 89//79
f 88//80 25//80 87//80
f 88//81 23//81 25//81
f 20//82 86//82 85//82
f 84//83 86//83 90//83
f 12//84 11//84 90//84
f 75//85 77//85 9//85
f 91//86 92//86 93//86
f 93//87 9//87 17//87
f 94//88 95//88 93//88
f 36//89 34//89 96//89
f 95//90 97//90 98//90
f 95//91 98//91 26//91
f 96//92 34//92 99//92
f 96//93 99//93 52//93
f 98//94 97//94 30//94
f 32//95 30//95 100//95
f 101//96 102//96 97//96
f 32//97 103//97 33//97
f 102//98 104//98 100//98
f 104//99 105//99 103//99
f 99//100 38//100 52//100
f 106//101 38//101 99//101
f 102//102 107//102 108//102
f 102//103 108//103 104//103
f 109//104 55//104 47//104
f 40//105 55//105 110//105
f 41//106 40//106 51//106
f 55//107 91//107 110//107
f 92//108 91//108 109//108
f 91//109 17//109 110//109
f 105//110 104//110 47//110
f 1//111 8//111 4//111
f 1//112 3//112 8//112
f 17//113 9//113 2//113
f 2//114 9//114 3//114
f 5//115 13//115 15//115
f 5//116 8//116 10//116
f 11//117 5//117 10//117
f 5//118 11//118 13//118
f 12//119 15//119 13//119
f 6//120 16//120 19//120
f 18//121 1//121 19//121
f 17//122 2//122 1//122
f 15//123 6//123 5//123
f 35//124 36//124 20//124
f 20//125 22//125 35//125
f 25//126 24//126 21//126
f 27//127 26//127 98//127
f 35//128 22//128 28//128
f 21//129 29//129 28//129
f 27//130 98//130 30//130
f 24//131 31//131 29//131
f 31//132 32//132 29//132
f 32//133 31//133 30//133
f 28//134 29//134 33//134
f 28//135 33//135 34//135
f 37//136 41//136 38//136
f 42//137 38//137 106//137
f 106//138 111//138 43//138
f 42//139 106//139 43//139
f 106//140 105//140 111//140
f 49//141 105//141 47//141
f 111//142 105//142 45//142
f 111//143 45//143 44//143
f 111//144 44//144 43//144
f 105//145 49//145 45//145
f 45//146 49//146 46//146
f 44//147 46//147 50//147
f 50//148 53//148 39//148
f 46//149 54//149 53//149
f 55//150 48//150 47//150
f 54//151 48//151 55//151
f 54//152 40//152 37//152
f 61//153 63//153 56//153
f 61//154 60//154 63//154
f 60//155 59//155 66//155
f 57//156 67//156 62//156
f 69//157 71//157 67//157
f 69//158 65//158 70//158
f 67//159 71//159 62//159
f 71//160 69//160 70//160
f 72//161 73//161 58//161
f 73//162 56//162 58//162
f 11//163 10//163 80//163
f 7//164 78//164 10//164
f 10//165 78//165 80//165
f 75//166 79//166 77//166
f 78//67 77//167 79//68
f 78//168 73//168 80//168
f 75//169 82//169 79//169
f 79//170 82//170 81//170
f 80//171 72//171 84//171
f 59//172 61//172 79//172
f 81//173 83//173 66//173
f 66//174 83//174 70//174
f 85//175 72//175 71//175
f 70//176 83//176 88//176
f 71//177 87//177 85//177
f 83//178 82//178 89//178
f 83//179 89//179 88//179
f 88//180 89//180 23//180
f 85//181 87//181 25//181
f 20//182 85//182 25//182
f 26//183 23//183 89//183
f 89//184 74//184 95//184
f 26//185 89//185 95//185
f 20//186 36//186 86//186
f 86//187 36//187 90//187
f 36//188 12//188 90//188
f 80//189 90//189 11//189
f 90//190 80//190 84//190
f 9//191 76//191 75//191
f 52//192 14//192 96//192
f 17//193 91//193 93//193
f 14//194 12//194 96//194
f 76//195 9//195 93//195
f 92//196 94//196 93//196
f 12//197 36//197 96//197
f 76//198 93//198 95//198
f 95//199 94//200 101//201
f 95//199 101//201 97//202
f 99//203 34//203 33//203
f 30//204 97//204 100//204
f 97//205 102//205 100//205
f 99//206 33//206 103//206
f 32//207 100//207 103//207
f 94//208 107//208 101//208
f 100//209 104//209 103//209
f 103//210 106//210 99//210
f 102//211 101//211 107//211
f 103//212 105//212 106//212
f 104//213 108//213 47//213
f 108//214 107//214 109//214
f 47//215 108//215 109//215
f 16//216 51//216 110//216 18//216
f 107//217 92//217 109//217
f 55//218 109//218 91//218
f 40//219 110//219 51//219
f 14//220 51//220 16//220
f 51//221 14//221 52//221
f 92//222 107//222 94//222
f 110//223 17//223 18//223
f 76//224 95//224 74//224
f 21//225 20//225 25//225
f 7//226 9//226 77//226
