# Blender v2.79 (sub 0) OBJ File: 'weather.blend'
# www.blender.org
mtllib 10d.mtl
o 10d_cloud.001
v 0.695354 2.625518 0.338385
v 1.105778 3.753149 0.338386
v 1.105778 3.753149 0.238386
v 0.695354 2.625518 0.238385
v 1.199747 3.718947 0.238386
v 0.789323 2.591316 0.238385
v 1.199747 3.718947 0.338386
v 0.789323 2.591316 0.338385
v 5.041725 2.646117 0.667968
v 5.452149 3.773748 0.667969
v 5.452149 3.773748 0.567969
v 5.041725 2.646117 0.567968
v 5.546118 3.739546 0.567969
v 5.135694 2.611915 0.567968
v 5.546118 3.739546 0.667969
v 5.135694 2.611915 0.667968
v 3.813174 1.878860 0.008802
v 4.497214 3.758245 0.008803
v 4.497214 3.758245 -0.091197
v 3.813174 1.878860 -0.091198
v 4.591183 3.724044 -0.091197
v 3.907143 1.844658 -0.091198
v 4.591183 3.724044 0.008803
v 3.907143 1.844658 0.008802
v 1.526694 1.899459 -0.361978
v 2.210735 3.778844 -0.361977
v 2.210735 3.778844 -0.461977
v 1.526694 1.899459 -0.461978
v 2.304704 3.744643 -0.461977
v 1.620664 1.865257 -0.461978
v 2.304704 3.744642 -0.361977
v 1.620664 1.865257 -0.361978
v 2.618437 1.858261 0.976951
v 3.302477 3.737647 0.976952
v 3.302477 3.737647 0.876952
v 2.618437 1.858261 0.876951
v 3.396446 3.703445 0.876952
v 2.712406 1.824059 0.876951
v 3.396446 3.703445 0.976952
v 2.712406 1.824059 0.976951
v 3.159698 5.424982 -1.819627
v 3.345529 6.066237 -1.379629
v 3.941814 5.776163 -1.502232
v 3.493976 4.463227 -1.672037
v 3.853281 4.146756 -1.084613
v 2.928658 4.249049 -1.285157
v 4.459759 5.341034 -1.062889
v 4.114301 4.933160 -1.638548
v 3.902598 6.127321 -0.742855
v 4.370569 4.661601 -0.901920
v 3.952380 4.206284 -0.493855
v 3.507015 4.210818 -0.148643
v 3.575726 4.038610 -0.739279
v 2.801753 4.188675 -0.599865
v 3.182504 4.046055 -0.779171
v 2.383876 4.831324 -1.168319
v 3.018788 6.073933 -1.266668
v 2.468343 5.391043 -1.338941
v 2.992912 4.871184 -1.760075
v 4.076254 4.169177 1.226902
v 4.240842 4.608526 2.021497
v 3.936122 4.152401 1.616947
v 4.294096 5.826720 1.710514
v 4.061211 5.307663 2.312722
v 4.534369 4.879479 1.718944
v 3.877638 6.143604 1.439385
v 3.890999 5.972147 1.934651
v 3.304016 4.220695 1.929242
v 3.179780 4.589741 2.248643
v 3.181824 5.916720 2.017759
v 3.239506 5.428793 2.340341
v 2.733030 5.276572 2.085691
v 2.673084 4.544854 1.742027
v 3.089916 4.112624 1.137548
v 3.509030 4.027666 1.313743
v 3.498159 4.151108 0.757052
v 1.103497 4.379538 -0.485205
v 1.712736 4.131223 0.285882
v 0.990713 4.039073 0.351963
v 1.325364 5.318161 -0.717282
v 1.619402 4.452638 -0.403258
v 0.981029 4.158960 0.971336
v 0.976462 4.413862 1.215174
v 0.325027 4.846977 1.055251
v 0.517601 5.472463 1.196518
v 0.042658 5.159500 0.264852
v 1.035041 6.217218 0.483191
v 0.510817 6.010298 0.134972
v 0.504877 5.895393 0.845946
v 0.336427 4.413301 0.347698
v 1.935198 4.539945 -0.811339
v 2.420971 3.908321 -0.060013
v 0.553257 4.404528 -0.181798
v 0.589213 5.353417 -0.589224
v 1.103850 5.962091 -0.349455
v 5.692100 4.488617 -0.282347
v 5.894027 4.268366 0.238261
v 5.429050 4.185174 0.100099
v 5.594169 5.646472 0.016776
v 5.937083 5.515228 0.039767
v 5.465105 5.250381 -0.398028
v 5.464620 4.139889 0.531118
v 5.824510 4.953446 -0.354372
v 6.277779 4.934371 0.235827
v 5.936163 5.454738 0.787191
v 5.618811 5.706769 0.542508
v 5.895196 4.395754 0.800709
v 6.165446 4.970592 0.752691
v 5.699611 4.829141 1.176396
v 5.470961 5.232094 1.181144
v 5.235536 4.444907 1.003658
v 5.139574 4.178309 0.497747
v 5.210913 4.404362 -0.211993
v 4.358150 6.717661 0.509943
v 4.416132 6.548639 -0.387427
v 3.979284 6.683388 0.102045
v 4.698980 5.882442 -0.877034
v 5.101389 4.831950 -0.742881
v 5.203795 6.053314 -0.460219
v 4.438030 4.042121 -0.318113
v 5.414512 6.104222 0.030380
v 4.935678 6.581525 0.481299
v 5.133636 6.245463 1.073823
v 4.505220 3.902999 0.187933
v 4.733469 4.100546 1.029796
v 4.160521 3.923370 0.743640
v 4.988638 4.742781 1.487663
v 5.076674 5.731354 1.523741
v 4.345262 6.417665 1.300824
v 3.847445 3.938644 0.187045
v 2.146599 6.806841 -0.832473
v 2.750086 7.267087 -0.128704
v 3.436013 6.915824 -0.544339
v 3.056425 7.298523 0.554429
v 4.010303 6.692470 0.733689
v 2.994974 3.917229 0.160334
v 3.198080 6.686250 1.647662
v 3.540894 6.139349 1.757089
v 2.344732 3.987984 0.972396
v 2.277574 6.006219 2.058091
v 2.728129 7.200077 1.127865
v 1.855248 6.772439 1.465829
v 2.000654 4.776814 1.811426
v 1.355434 6.154763 1.473004
v 1.231368 5.651173 1.388598
v 1.580119 4.551374 1.247342
v 2.241589 7.298375 0.461812
v 1.373062 6.800503 0.419632
v 1.619413 6.932525 -0.207389
v 1.946522 5.748766 -1.255939
v 1.028012 4.954640 1.458945
vn -0.9397 0.3420 0.0000
vn 0.0000 0.0000 -1.0000
vn 0.9397 -0.3420 0.0000
vn 0.0000 -0.0000 1.0000
vn -0.3420 -0.9397 0.0000
vn 0.3420 0.9397 0.0000
vn 0.0936 0.5447 -0.8334
vn 0.0063 -0.8787 -0.4773
vn 0.7404 0.2522 -0.6230
vn 0.4918 -0.6046 -0.6266
vn 0.7386 0.6256 -0.2512
vn 0.8968 -0.2100 -0.3894
vn 0.2204 -0.9292 0.2966
vn -0.1868 -0.9227 0.3372
vn -0.4097 -0.8989 -0.1551
vn -0.7355 -0.6493 -0.1934
vn -0.5140 0.4889 -0.7048
vn -0.6884 -0.1144 -0.7162
vn -0.3164 -0.5547 -0.7695
vn 0.0700 -0.1275 -0.9894
vn 0.7063 -0.6713 0.2249
vn 0.8335 0.2160 0.5085
vn 0.4595 0.8430 0.2795
vn 0.5509 0.5148 0.6568
vn 0.2384 -0.7287 0.6420
vn 0.2031 -0.3316 0.9213
vn 0.0614 0.5054 0.8607
vn 0.1098 0.5572 0.8231
vn -0.6686 -0.2705 0.6927
vn -0.2757 -0.9396 0.2028
vn -0.1072 -0.9711 -0.2132
vn 0.0848 -0.9269 -0.3655
vn 0.1889 -0.2776 -0.9419
vn 0.1414 -0.9715 0.1903
vn -0.5388 -0.5874 0.6039
vn -0.8992 0.1875 0.3954
vn -0.4423 0.8859 0.1395
vn -0.6409 -0.6591 0.3936
vn -0.4910 -0.8567 0.1581
vn -0.8692 0.4892 0.0718
vn -0.3971 -0.8308 -0.3900
vn -0.8594 -0.3767 -0.3457
vn -0.8153 0.3822 -0.4350
vn -0.2571 -0.8826 -0.3936
vn -0.4667 -0.3339 -0.8189
vn -0.1311 0.4573 -0.8796
vn 0.2881 -0.8367 -0.4657
vn 0.2938 0.6440 -0.7064
vn 0.2091 -0.9706 -0.1192
vn 0.7506 -0.3047 -0.5863
vn 0.7708 0.2551 -0.5837
vn 0.7592 -0.4392 -0.4803
vn 0.8554 0.5162 0.0428
vn 0.5889 0.8055 0.0659
vn 0.8613 -0.4959 0.1105
vn 0.8958 0.4124 0.1658
vn 0.8895 -0.3997 0.2213
vn 0.6915 -0.2691 0.6704
vn 0.6134 0.2368 0.7534
vn 0.1459 0.7775 0.6117
vn -0.1515 -0.8623 0.4832
vn -0.1072 -0.9897 -0.0951
vn -0.1111 -0.1815 -0.9771
vn 0.1028 0.9787 -0.1777
vn 0.4943 0.0788 -0.8657
vn 0.8238 -0.3462 -0.4488
vn 0.6041 0.1312 -0.7861
vn 0.5982 0.1327 -0.7903
vn 0.5970 0.1330 -0.7911
vn 0.4387 -0.8680 -0.2324
vn 0.8489 0.3451 -0.4004
vn 0.2184 0.9615 -0.1670
vn 0.9266 0.3662 -0.0854
vn 0.7536 0.6471 0.1153
vn 0.3427 -0.9310 0.1255
vn 0.2138 -0.9624 0.1679
vn 0.7292 -0.3506 0.5877
vn 0.5925 -0.0820 0.8014
vn 0.2314 0.9084 0.3483
vn 0.4354 -0.0715 0.8974
vn 0.2396 0.0694 0.9684
vn 0.0450 -0.8872 0.4591
vn -0.0541 -0.9985 0.0030
vn -0.3102 -0.8675 -0.3888
vn 0.0525 0.6058 -0.7939
vn 0.0618 0.8102 -0.5828
vn 0.4341 0.4529 -0.7787
vn 0.5469 0.8311 -0.1005
vn 0.2457 -0.9548 0.1671
vn 0.6390 0.5149 0.5714
vn 0.5378 0.6135 0.5783
vn 0.1226 -0.9754 0.1831
vn -0.0137 -0.9970 0.0759
vn 0.3650 0.3972 0.8420
vn 0.0513 0.0697 0.9962
vn -0.0544 0.6851 0.7264
vn -0.0518 -0.4211 0.9056
vn -0.4526 0.3756 0.8087
vn -0.5005 -0.0218 0.8655
vn -0.2758 -0.9597 0.0537
vn -0.4986 -0.8174 0.2884
vn -0.4908 0.8351 0.2486
vn -0.7261 0.5916 0.3505
vn -0.8483 0.4826 -0.2180
vn -0.7057 0.1525 -0.6919
vn -0.6601 -0.4441 -0.6058
vn -0.6274 0.3887 -0.6747
vn -0.2380 0.8937 -0.3804
vn -0.1271 0.3892 -0.9123
vn -0.9330 0.1774 0.3132
vn 0.1328 -0.1051 -0.9856
vn 0.2854 0.2096 -0.9352
vn -0.0073 0.9960 -0.0891
vn 0.3402 0.8601 -0.3802
vn 0.0114 -0.9568 -0.2905
vn 0.7052 -0.5496 -0.4479
vn 0.7133 -0.6992 -0.0492
vn 0.3918 -0.9196 0.0269
vn -0.0460 -0.9604 0.2747
vn -0.6110 -0.4395 -0.6584
vn -0.5716 0.0844 -0.8162
vn -0.2498 0.5960 -0.7631
vn -0.0247 -0.9320 -0.3615
vn 0.2051 -0.9547 -0.2157
vn 0.2487 -0.9674 0.0477
vn 0.7504 -0.0804 0.6560
vn 0.2786 0.9099 0.3075
vn 0.0532 -0.9476 0.3149
vn 0.1762 -0.6096 0.7729
vn 0.0195 0.7468 0.6647
vn 0.0172 -0.1098 0.9938
vn -0.4319 -0.0675 0.8994
vn -0.5054 0.4335 0.7461
vn -0.5038 -0.6560 0.5620
vn -0.5000 -0.8296 0.2485
vn 0.1938 -0.8788 -0.4361
vn 0.3570 -0.8369 0.4150
vn 0.0459 -0.4142 0.9090
vn 0.1178 -0.6853 0.7186
vn 0.3525 -0.0084 0.9358
vn -0.1292 0.8280 0.5457
vn -0.2977 0.1816 0.9372
vn -0.4923 -0.0447 0.8693
vn -0.4296 -0.3368 0.8379
vn -0.3443 0.5930 0.7279
vn -0.8910 0.2735 0.3623
vn -0.9200 -0.3406 0.1940
vn -0.4870 -0.8535 -0.1853
vn -0.8011 -0.2103 -0.5604
vn -0.1700 0.9382 -0.3015
vn -0.4582 0.6331 -0.6239
vn -0.1772 -0.1966 -0.9644
vn -0.0052 -0.1517 -0.9884
vn 0.4614 0.4457 -0.7671
vn 0.3619 0.9241 -0.1229
vn 0.4042 -0.8923 0.2012
vn 0.1970 -0.5899 0.7831
vn 0.5325 0.2928 0.7942
vn 0.1177 -0.8073 0.5782
vn -0.2369 -0.1457 0.9605
vn -0.4109 -0.8559 -0.3139
vn 0.0525 -0.7996 -0.5983
vn 0.0328 -0.6836 -0.7291
vn 0.2620 -0.2549 -0.9308
vn 0.3027 -0.6360 -0.7098
vn 0.3436 0.6465 -0.6812
vn 0.6044 0.1312 -0.7858
vn 0.4004 -0.6716 -0.6235
vn 0.4830 0.8151 -0.3197
vn 0.5137 0.8024 -0.3039
vn 0.4969 -0.8177 -0.2908
vn 0.8409 0.2360 -0.4870
vn 0.7991 0.5857 0.1358
vn 0.8390 0.3255 0.4361
vn 0.5493 -0.7777 0.3056
vn 0.8198 0.3230 0.4728
vn 0.4639 -0.6290 0.6238
vn 0.3026 0.8689 0.3917
vn 0.3397 0.5978 0.7261
vn 0.2572 0.5354 0.8044
vn 0.1996 -0.6202 0.7586
vn 0.1619 -0.6304 0.7592
vn -0.0944 0.5727 0.8143
vn 0.1599 0.9221 0.3524
vn -0.2939 0.7805 0.5518
vn -0.2919 -0.8721 0.3927
vn -0.3185 -0.9354 0.1535
vn -0.5873 -0.8073 -0.0590
vn -0.1684 -0.9083 -0.3830
vn -0.0519 -0.9647 -0.2583
vn -0.3138 0.8060 -0.5020
vn 0.1551 -0.9172 -0.3669
vn 0.1233 0.6103 -0.7825
vn 0.2736 -0.8817 -0.3844
vn 0.7305 0.5381 -0.4205
vn 0.3488 0.9159 -0.1985
vn 0.4723 -0.8798 -0.0534
vn 0.4270 0.9036 -0.0340
vn 0.4402 0.8082 0.3912
vn 0.4402 0.8084 0.3908
vn 0.4403 0.8082 0.3910
vn 0.4408 0.8050 0.3972
vn 0.0062 -0.8114 0.5845
vn 0.0827 0.4305 0.8988
vn -0.0719 0.5849 0.8079
vn -0.1950 -0.7532 0.6282
vn -0.2679 -0.1311 0.9545
vn -0.0183 0.9871 0.1590
vn -0.5405 -0.0468 0.8400
vn -0.3507 -0.7498 0.5611
vn -0.2995 0.8877 0.3498
vn -0.7010 -0.3051 0.6446
vn -0.8125 0.5030 0.2947
vn -0.4968 0.8678 -0.0125
vn -0.8517 0.4678 -0.2361
vn -0.4122 -0.2793 -0.8672
vn -0.2559 0.9283 -0.2696
vn -0.6437 0.4342 -0.6302
vn -0.5013 -0.2945 -0.8136
vn -0.1101 -0.6977 -0.7079
vn -0.1923 -0.8089 -0.5557
vn 0.0053 0.9988 -0.0483
vn -0.0550 0.1488 -0.9873
vn -0.0789 0.9968 -0.0105
vn 0.7626 -0.6199 0.1848
vn -0.0519 0.3447 -0.9373
usemtl None
s off
f 1//1 2//1 3//1 4//1
f 4//2 3//2 5//2 6//2
f 6//3 5//3 7//3 8//3
f 8//4 7//4 2//4 1//4
f 4//5 6//5 8//5 1//5
f 5//6 3//6 2//6 7//6
f 9//1 10//1 11//1 12//1
f 12//2 11//2 13//2 14//2
f 14//3 13//3 15//3 16//3
f 16//4 15//4 10//4 9//4
f 12//5 14//5 16//5 9//5
f 13//6 11//6 10//6 15//6
f 17//1 18//1 19//1 20//1
f 20//2 19//2 21//2 22//2
f 22//3 21//3 23//3 24//3
f 24//4 23//4 18//4 17//4
f 20//5 22//5 24//5 17//5
f 21//6 19//6 18//6 23//6
f 25//1 26//1 27//1 28//1
f 28//2 27//2 29//2 30//2
f 30//3 29//3 31//3 32//3
f 32//4 31//4 26//4 25//4
f 28//5 30//5 32//5 25//5
f 29//6 27//6 26//6 31//6
f 33//1 34//1 35//1 36//1
f 36//2 35//2 37//2 38//2
f 38//3 37//3 39//3 40//3
f 40//4 39//4 34//4 33//4
f 36//5 38//5 40//5 33//5
f 37//6 35//6 34//6 39//6
s 1
f 41//7 42//7 43//7
f 44//8 45//8 46//8
f 43//9 47//9 48//9
f 48//10 45//10 44//10
f 43//11 49//11 47//11
f 48//12 47//12 50//12
f 51//13 52//13 53//13
f 52//14 54//14 55//14
f 55//15 54//15 46//15
f 56//16 46//16 54//16
f 57//17 41//17 58//17
f 58//18 59//18 56//18
f 46//19 59//19 44//19
f 41//20 44//20 59//20
f 60//21 61//21 62//21
f 63//22 64//22 65//22
f 66//23 67//23 63//23
f 63//24 67//24 64//24
f 61//25 68//25 62//25
f 64//26 69//26 61//26
f 64//27 67//27 70//27
f 70//28 71//28 64//28
f 69//29 72//29 73//29
f 68//30 74//30 75//30
f 74//31 76//31 75//31
f 77//32 78//32 79//32
f 80//33 81//33 77//33
f 82//34 79//34 78//34
f 83//35 84//35 82//35
f 85//36 86//36 84//36
f 87//37 88//37 89//37
f 84//38 90//38 82//38
f 82//39 90//39 79//39
f 89//40 88//40 86//40
f 91//41 92//41 78//41 81//41
f 90//42 86//42 93//42
f 88//43 94//43 86//43
f 79//44 93//44 77//44
f 94//45 77//45 93//45
f 95//46 80//46 94//46
f 96//47 97//47 98//47
f 99//48 100//48 101//48
f 97//49 102//49 98//49
f 103//50 104//50 96//50
f 100//51 104//51 103//51
f 96//52 104//52 97//52
f 100//53 105//53 104//53
f 106//54 105//54 100//54
f 97//55 104//55 107//55
f 105//56 108//56 104//56
f 104//57 108//57 107//57
f 107//58 108//58 109//58
f 105//59 109//59 108//59
f 106//60 110//60 105//60
f 111//61 112//61 102//61
f 112//62 98//62 102//62
f 101//63 96//63 113//63
f 114//64 115//64 116//64
f 47//65 117//65 118//65
f 118//66 101//66 113//66
f 118//67 119//68 101//69
f 113//70 112//70 120//70
f 121//71 99//71 119//71
f 114//72 122//72 115//72
f 121//73 106//73 99//73
f 122//74 123//74 121//74
f 124//75 112//75 125//75
f 124//76 125//76 126//76
f 111//77 110//77 127//77
f 110//78 128//78 127//78
f 122//79 114//79 129//79
f 128//80 65//80 127//80
f 128//81 63//81 65//81
f 60//82 126//82 125//82
f 124//83 126//83 130//83
f 52//84 51//84 130//84
f 115//85 117//85 49//85
f 131//86 132//86 133//86
f 133//87 49//87 57//87
f 134//88 135//88 133//88
f 76//89 74//89 136//89
f 135//90 137//90 138//90
f 135//91 138//91 66//91
f 136//92 74//92 139//92
f 136//93 139//93 92//93
f 138//94 137//94 70//94
f 72//95 70//95 140//95
f 141//96 142//96 137//96
f 72//97 143//97 73//97
f 142//98 144//98 140//98
f 144//99 145//99 143//99
f 139//100 78//100 92//100
f 146//101 78//101 139//101
f 142//102 147//102 148//102
f 142//103 148//103 144//103
f 149//104 95//104 87//104
f 80//105 95//105 150//105
f 81//106 80//106 91//106
f 95//107 131//107 150//107
f 132//108 131//108 149//108
f 131//109 57//109 150//109
f 145//110 144//110 87//110
f 41//111 48//111 44//111
f 41//112 43//112 48//112
f 57//113 49//113 42//113
f 42//114 49//114 43//114
f 45//115 53//115 55//115
f 45//116 48//116 50//116
f 51//117 45//117 50//117
f 45//118 51//118 53//118
f 52//119 55//119 53//119
f 46//120 56//120 59//120
f 58//121 41//121 59//121
f 57//122 42//122 41//122
f 55//123 46//123 45//123
f 75//124 76//124 60//124
f 60//125 62//125 75//125
f 65//126 64//126 61//126
f 67//127 66//127 138//127
f 75//128 62//128 68//128
f 61//129 69//129 68//129
f 67//130 138//130 70//130
f 64//131 71//131 69//131
f 71//132 72//132 69//132
f 72//133 71//133 70//133
f 68//134 69//134 73//134
f 68//135 73//135 74//135
f 77//136 81//136 78//136
f 82//137 78//137 146//137
f 146//138 151//138 83//138
f 82//139 146//139 83//139
f 146//140 145//140 151//140
f 89//141 145//141 87//141
f 151//142 145//142 85//142
f 151//143 85//143 84//143
f 151//144 84//144 83//144
f 145//145 89//145 85//145
f 85//146 89//146 86//146
f 84//147 86//147 90//147
f 90//148 93//148 79//148
f 86//149 94//149 93//149
f 95//150 88//150 87//150
f 94//151 88//151 95//151
f 94//152 80//152 77//152
f 101//153 103//153 96//153
f 101//154 100//154 103//154
f 100//155 99//155 106//155
f 97//156 107//156 102//156
f 109//157 111//157 107//157
f 109//158 105//158 110//158
f 107//159 111//159 102//159
f 111//160 109//160 110//160
f 112//161 113//161 98//161
f 113//162 96//162 98//162
f 51//163 50//163 120//163
f 47//164 118//164 50//164
f 50//165 118//165 120//165
f 115//166 119//166 117//166
f 118//67 117//167 119//68
f 118//168 113//168 120//168
f 115//169 122//169 119//169
f 119//170 122//170 121//170
f 120//171 112//171 124//171
f 99//172 101//172 119//172
f 121//173 123//173 106//173
f 106//174 123//174 110//174
f 125//175 112//175 111//175
f 110//176 123//176 128//176
f 111//177 127//177 125//177
f 123//178 122//178 129//178
f 123//179 129//179 128//179
f 128//180 129//180 63//180
f 125//181 127//181 65//181
f 60//182 125//182 65//182
f 66//183 63//183 129//183
f 129//184 114//184 135//184
f 66//185 129//185 135//185
f 60//186 76//186 126//186
f 126//187 76//187 130//187
f 76//188 52//188 130//188
f 120//189 130//189 51//189
f 130//190 120//190 124//190
f 49//191 116//191 115//191
f 92//192 54//192 136//192
f 57//193 131//193 133//193
f 54//194 52//194 136//194
f 116//195 49//195 133//195
f 132//196 134//196 133//196
f 52//197 76//197 136//197
f 116//198 133//198 135//198
f 135//199 134//200 141//201
f 135//199 141//201 137//202
f 139//203 74//203 73//203
f 70//204 137//204 140//204
f 137//205 142//205 140//205
f 139//206 73//206 143//206
f 72//207 140//207 143//207
f 134//208 147//208 141//208
f 140//209 144//209 143//209
f 143//210 146//210 139//210
f 142//211 141//211 147//211
f 143//212 145//212 146//212
f 144//213 148//213 87//213
f 148//214 147//214 149//214
f 87//215 148//215 149//215
f 56//216 91//216 150//216 58//216
f 147//217 132//217 149//217
f 95//218 149//218 131//218
f 80//219 150//219 91//219
f 54//220 91//220 56//220
f 91//221 54//221 92//221
f 132//222 147//222 134//222
f 150//223 57//223 58//223
f 116//224 135//224 114//224
f 61//225 60//225 65//225
f 47//226 49//226 117//226
