# Blender v2.79 (sub 0) OBJ File: ''
# www.blender.org
mtllib 11d.mtl
o lightning_cloud.005
v -0.065883 2.244523 -0.205111
v 0.372569 3.263469 -0.133734
v 0.372569 3.263469 -0.362702
v -0.065883 2.244523 -0.353838
v 0.800919 3.259887 -0.399377
v 0.334059 2.542179 -0.430634
v 0.800919 3.259887 -0.097059
v 0.334059 2.542179 -0.128316
v 0.381454 2.354172 -0.378828
v 0.381454 2.354172 -0.180122
v 0.713449 2.530478 -0.359675
v 0.085052 1.540540 -0.279475
v 0.713449 2.530478 -0.199274
v -0.949711 2.407920 -0.205111
v -0.615238 3.181771 -0.133734
v -0.615238 3.181771 -0.362702
v -0.949711 2.407920 -0.353838
v -0.186888 3.178189 -0.399377
v -0.549768 2.705575 -0.430634
v -0.186888 3.178189 -0.097059
v -0.549768 2.705575 -0.128316
v -0.509801 2.517568 -0.378828
v -0.509801 2.517568 -0.180122
v -0.110962 2.827562 -0.359675
v -0.739358 1.837625 -0.279475
v -0.110962 2.827562 -0.199274
vn -0.9186 0.3953 0.0000
vn -0.1703 0.1014 -0.9802
vn 0.8383 -0.5453 0.0000
vn -0.1409 0.0150 0.9899
vn 0.2381 -0.9712 0.0000
vn 0.0084 1.0000 0.0000
vn 0.1479 -0.1728 -0.9738
vn 0.0308 0.9995 0.0000
vn 0.0828 -0.2453 0.9659
vn 0.0828 -0.2453 -0.9659
vn 0.8443 -0.5359 0.0000
vn -0.9396 0.3423 0.0000
vn 0.1479 -0.1728 0.9738
vn -0.9179 0.3967 0.0000
vn -0.1749 0.1154 -0.9778
vn 0.7932 -0.6090 0.0000
vn -0.1333 -0.0070 0.9911
vn 0.2419 -0.9703 0.0000
vn 0.2092 -0.2102 -0.9550
vn -0.2678 0.9635 0.0000
vn 0.1140 -0.2413 0.9637
vn 0.1140 -0.2413 -0.9637
vn -0.9475 0.3199 0.0000
vn 0.2092 -0.2102 0.9550
usemtl Light
s off
f 1//1 2//1 3//1 4//1
f 4//2 3//2 5//2 6//2
f 6//3 5//3 7//3 8//3
f 8//4 7//4 2//4 1//4
f 1//5 4//5 9//5 10//5
f 5//6 3//6 2//6 7//6
f 9//7 11//7 12//7
f 6//8 8//8 13//8 11//8
f 8//9 1//9 10//9 13//9
f 4//10 6//10 11//10 9//10
f 11//11 13//11 12//11
f 10//12 9//12 12//12
f 13//13 10//13 12//13
f 14//14 15//14 16//14 17//14
f 17//15 16//15 18//15 19//15
f 19//16 18//16 20//16 21//16
f 21//17 20//17 15//17 14//17
f 14//18 17//18 22//18 23//18
f 18//6 16//6 15//6 20//6
f 22//19 24//19 25//19
f 19//20 21//20 26//20 24//20
f 21//21 14//21 23//21 26//21
f 17//22 19//22 24//22 22//22
f 24//11 26//11 25//11
f 23//23 22//23 25//23
f 26//24 23//24 25//24
o 11d_cloud.003
v 0.148818 4.793375 -2.067846
v 0.334649 5.434630 -1.627848
v 0.930934 5.144556 -1.750451
v 0.483096 3.831620 -1.920257
v 0.842401 3.515148 -1.332833
v -0.082222 3.617441 -1.533377
v 1.448879 4.709426 -1.311109
v 1.103421 4.301552 -1.886768
v 0.891718 5.495714 -0.991074
v 1.359689 4.029993 -1.150140
v 0.941500 3.574676 -0.742075
v 0.496135 3.579211 -0.396863
v 0.564846 3.407003 -0.987499
v -0.209127 3.557068 -0.848085
v 0.171624 3.414447 -1.027391
v -0.627004 4.199716 -1.416539
v 0.007908 5.442327 -1.514887
v -0.542537 4.759436 -1.587161
v -0.017968 4.239578 -2.008295
v 1.065374 3.537570 0.978682
v 1.229962 3.976919 1.773278
v 0.925242 3.520794 1.368727
v 1.283216 5.195113 1.462295
v 1.050331 4.676055 2.064503
v 1.523489 4.247872 1.470724
v 0.866758 5.511997 1.191166
v 0.880119 5.340539 1.686432
v 0.293136 3.589088 1.681022
v 0.168900 3.958134 2.000423
v 0.170944 5.285113 1.769540
v 0.228626 4.797185 2.092122
v -0.277850 4.644965 1.837472
v -0.337796 3.913247 1.493807
v 0.079036 3.481017 0.889328
v 0.498150 3.396059 1.065523
v 0.487279 3.519501 0.508832
v -1.907383 3.747930 -0.733425
v -1.298144 3.499615 0.037662
v -2.020167 3.407465 0.103743
v -1.685516 4.686553 -0.965502
v -1.391478 3.821030 -0.651478
v -2.029851 3.527353 0.723116
v -2.034418 3.782255 0.966954
v -2.685853 4.215370 0.807031
v -2.493279 4.840856 0.948299
v -2.968222 4.527893 0.016632
v -1.975839 5.585611 0.234972
v -2.500063 5.378690 -0.113247
v -2.506003 5.263786 0.597727
v -2.674453 3.781694 0.099478
v -1.075682 3.908337 -1.059559
v -0.589909 3.276714 -0.308233
v -2.457623 3.772920 -0.430018
v -2.421667 4.721810 -0.837443
v -1.907030 5.330484 -0.597674
v 2.681220 3.857010 -0.530567
v 2.883147 3.636759 -0.009959
v 2.418169 3.553566 -0.148121
v 2.583289 5.014864 -0.231443
v 2.926203 4.883621 -0.208452
v 2.454225 4.618773 -0.646247
v 2.453740 3.508281 0.282898
v 2.813630 4.321839 -0.602592
v 3.266899 4.302764 -0.012393
v 2.925282 4.823131 0.538972
v 2.607931 5.075162 0.294289
v 2.884315 3.764147 0.552489
v 3.154566 4.338985 0.504471
v 2.688731 4.197534 0.928176
v 2.460081 4.600487 0.932924
v 2.224656 3.813300 0.755438
v 2.128694 3.546702 0.249527
v 2.200033 3.772754 -0.460213
v 1.347270 6.086054 0.261724
v 1.405252 5.917032 -0.635646
v 0.968404 6.051781 -0.146174
v 1.688100 5.250834 -1.125253
v 2.090508 4.200342 -0.991101
v 2.192914 5.421707 -0.708438
v 1.427150 3.410514 -0.566333
v 2.403632 5.472615 -0.217839
v 1.924798 5.949918 0.233080
v 2.122756 5.613856 0.825604
v 1.494339 3.271392 -0.060287
v 1.722589 3.468939 0.781576
v 1.149641 3.291763 0.495420
v 1.977757 4.111174 1.239443
v 2.065794 5.099747 1.275522
v 1.334382 5.786057 1.052605
v 0.836565 3.307037 -0.061175
v -0.864281 6.175234 -1.080692
v -0.260794 6.635479 -0.376923
v 0.425133 6.284217 -0.792558
v 0.045545 6.666916 0.306210
v 0.999423 6.060863 0.485470
v -0.015906 3.285622 -0.087886
v 0.187200 6.054642 1.399443
v 0.530014 5.507741 1.508870
v -0.666148 3.356377 0.724176
v -0.733306 5.374611 1.809872
v -0.282751 6.568469 0.879646
v -1.155632 6.140832 1.217610
v -1.010226 4.145206 1.563206
v -1.655446 5.523156 1.224785
v -1.779512 5.019566 1.140379
v -1.430761 3.919767 0.999122
v -0.769291 6.666767 0.213593
v -1.637818 6.168896 0.171413
v -1.391467 6.300918 -0.455608
v -1.064358 5.117158 -1.504158
v -1.982868 4.323033 1.210725
vn 0.0936 0.5447 -0.8334
vn 0.0063 -0.8787 -0.4773
vn 0.7404 0.2522 -0.6230
vn 0.4918 -0.6046 -0.6266
vn 0.7386 0.6256 -0.2512
vn 0.8968 -0.2100 -0.3894
vn 0.2204 -0.9292 0.2966
vn -0.1868 -0.9227 0.3373
vn -0.4097 -0.8989 -0.1551
vn -0.7355 -0.6493 -0.1934
vn -0.5140 0.4889 -0.7048
vn -0.6884 -0.1144 -0.7162
vn -0.3164 -0.5547 -0.7695
vn 0.0700 -0.1275 -0.9894
vn 0.7063 -0.6713 0.2249
vn 0.8335 0.2160 0.5085
vn 0.4595 0.8430 0.2795
vn 0.5509 0.5148 0.6568
vn 0.2384 -0.7287 0.6420
vn 0.2031 -0.3316 0.9213
vn 0.0614 0.5054 0.8607
vn 0.1098 0.5572 0.8231
vn -0.6686 -0.2706 0.6927
vn -0.2757 -0.9396 0.2028
vn -0.1072 -0.9711 -0.2132
vn 0.0848 -0.9269 -0.3655
vn 0.1889 -0.2776 -0.9419
vn 0.1414 -0.9715 0.1903
vn -0.5388 -0.5874 0.6039
vn -0.8992 0.1875 0.3954
vn -0.4423 0.8859 0.1395
vn -0.6409 -0.6591 0.3936
vn -0.4910 -0.8567 0.1581
vn -0.8692 0.4892 0.0718
vn -0.3971 -0.8308 -0.3900
vn -0.8594 -0.3767 -0.3457
vn -0.8153 0.3822 -0.4350
vn -0.2571 -0.8826 -0.3936
vn -0.4667 -0.3339 -0.8189
vn -0.1311 0.4573 -0.8796
vn 0.2881 -0.8367 -0.4657
vn 0.2938 0.6440 -0.7064
vn 0.2091 -0.9706 -0.1192
vn 0.7506 -0.3047 -0.5863
vn 0.7708 0.2551 -0.5837
vn 0.7592 -0.4392 -0.4803
vn 0.8554 0.5162 0.0428
vn 0.5889 0.8055 0.0659
vn 0.8613 -0.4959 0.1105
vn 0.8958 0.4124 0.1658
vn 0.8895 -0.3997 0.2213
vn 0.6915 -0.2691 0.6704
vn 0.6134 0.2368 0.7534
vn 0.1459 0.7775 0.6117
vn -0.1515 -0.8623 0.4832
vn -0.1072 -0.9897 -0.0951
vn -0.1111 -0.1815 -0.9771
vn 0.1028 0.9787 -0.1777
vn 0.4943 0.0788 -0.8657
vn 0.8238 -0.3462 -0.4488
vn 0.6041 0.1312 -0.7861
vn 0.5982 0.1327 -0.7903
vn 0.5970 0.1330 -0.7911
vn 0.4387 -0.8680 -0.2324
vn 0.8489 0.3451 -0.4004
vn 0.2184 0.9615 -0.1670
vn 0.9266 0.3662 -0.0854
vn 0.7536 0.6471 0.1153
vn 0.3427 -0.9310 0.1255
vn 0.2138 -0.9624 0.1679
vn 0.7292 -0.3506 0.5877
vn 0.5925 -0.0820 0.8014
vn 0.2314 0.9084 0.3483
vn 0.4354 -0.0715 0.8974
vn 0.2396 0.0694 0.9684
vn 0.0450 -0.8872 0.4591
vn -0.0541 -0.9985 0.0030
vn -0.3102 -0.8675 -0.3888
vn 0.0525 0.6058 -0.7939
vn 0.0618 0.8102 -0.5828
vn 0.4341 0.4529 -0.7787
vn 0.5469 0.8311 -0.1005
vn 0.2457 -0.9548 0.1670
vn 0.6390 0.5149 0.5714
vn 0.5378 0.6135 0.5783
vn 0.1226 -0.9754 0.1831
vn -0.0137 -0.9970 0.0759
vn 0.3650 0.3972 0.8420
vn 0.0513 0.0697 0.9962
vn -0.0544 0.6851 0.7264
vn -0.0518 -0.4211 0.9055
vn -0.4526 0.3756 0.8087
vn -0.5004 -0.0218 0.8655
vn -0.2758 -0.9597 0.0537
vn -0.4986 -0.8174 0.2884
vn -0.4908 0.8351 0.2486
vn -0.7261 0.5916 0.3505
vn -0.8483 0.4826 -0.2180
vn -0.7057 0.1525 -0.6919
vn -0.6601 -0.4441 -0.6058
vn -0.6274 0.3887 -0.6747
vn -0.2380 0.8937 -0.3804
vn -0.1271 0.3892 -0.9123
vn -0.9330 0.1774 0.3132
vn 0.1328 -0.1051 -0.9856
vn 0.2854 0.2096 -0.9352
vn -0.0073 0.9960 -0.0891
vn 0.3402 0.8601 -0.3802
vn 0.0114 -0.9568 -0.2905
vn 0.7052 -0.5496 -0.4479
vn 0.7133 -0.6992 -0.0492
vn 0.3918 -0.9196 0.0269
vn -0.0460 -0.9604 0.2747
vn -0.6110 -0.4395 -0.6584
vn -0.5716 0.0844 -0.8162
vn -0.2498 0.5960 -0.7631
vn -0.0247 -0.9320 -0.3615
vn 0.2051 -0.9547 -0.2157
vn 0.2487 -0.9674 0.0477
vn 0.7504 -0.0804 0.6560
vn 0.2786 0.9099 0.3075
vn 0.0532 -0.9476 0.3149
vn 0.1762 -0.6096 0.7729
vn 0.0195 0.7468 0.6647
vn 0.0172 -0.1098 0.9938
vn -0.4319 -0.0675 0.8994
vn -0.5054 0.4335 0.7461
vn -0.5038 -0.6560 0.5620
vn -0.5000 -0.8296 0.2485
vn 0.1938 -0.8788 -0.4361
vn 0.3570 -0.8369 0.4150
vn 0.0459 -0.4142 0.9090
vn 0.1178 -0.6853 0.7186
vn 0.3525 -0.0084 0.9358
vn -0.1292 0.8280 0.5457
vn -0.2977 0.1816 0.9372
vn -0.4923 -0.0447 0.8693
vn -0.4296 -0.3368 0.8379
vn -0.3443 0.5930 0.7279
vn -0.8910 0.2735 0.3623
vn -0.9200 -0.3406 0.1940
vn -0.4870 -0.8535 -0.1853
vn -0.8011 -0.2103 -0.5604
vn -0.1700 0.9382 -0.3015
vn -0.4582 0.6331 -0.6239
vn -0.1772 -0.1966 -0.9644
vn -0.0052 -0.1517 -0.9884
vn 0.4614 0.4457 -0.7671
vn 0.3619 0.9241 -0.1229
vn 0.4042 -0.8923 0.2012
vn 0.1970 -0.5899 0.7831
vn 0.5325 0.2928 0.7942
vn 0.1177 -0.8073 0.5782
vn -0.2369 -0.1457 0.9605
vn -0.4109 -0.8559 -0.3139
vn 0.0525 -0.7996 -0.5983
vn 0.0328 -0.6836 -0.7291
vn 0.2620 -0.2549 -0.9308
vn 0.3027 -0.6360 -0.7098
vn 0.3436 0.6465 -0.6812
vn 0.6044 0.1312 -0.7858
vn 0.4004 -0.6716 -0.6235
vn 0.4830 0.8151 -0.3197
vn 0.5137 0.8024 -0.3039
vn 0.4969 -0.8177 -0.2908
vn 0.8409 0.2360 -0.4870
vn 0.7991 0.5857 0.1358
vn 0.8390 0.3255 0.4361
vn 0.5493 -0.7777 0.3056
vn 0.8198 0.3230 0.4728
vn 0.4639 -0.6290 0.6238
vn 0.3026 0.8689 0.3917
vn 0.3397 0.5978 0.7261
vn 0.2572 0.5354 0.8044
vn 0.1996 -0.6202 0.7586
vn 0.1619 -0.6304 0.7592
vn -0.0944 0.5727 0.8143
vn 0.1599 0.9221 0.3524
vn -0.2939 0.7805 0.5518
vn -0.2919 -0.8721 0.3927
vn -0.3185 -0.9354 0.1535
vn -0.5873 -0.8073 -0.0590
vn -0.1684 -0.9083 -0.3830
vn -0.0519 -0.9647 -0.2583
vn -0.3138 0.8060 -0.5020
vn 0.1551 -0.9172 -0.3669
vn 0.1233 0.6103 -0.7825
vn 0.2736 -0.8817 -0.3844
vn 0.7305 0.5381 -0.4205
vn 0.3487 0.9159 -0.1985
vn 0.4723 -0.8798 -0.0534
vn 0.4270 0.9036 -0.0340
vn 0.4402 0.8082 0.3912
vn 0.4402 0.8084 0.3908
vn 0.4403 0.8082 0.3910
vn 0.4408 0.8050 0.3972
vn 0.0062 -0.8114 0.5845
vn 0.0827 0.4305 0.8988
vn -0.0719 0.5849 0.8079
vn -0.1950 -0.7532 0.6282
vn -0.2679 -0.1311 0.9545
vn -0.0183 0.9871 0.1590
vn -0.5405 -0.0468 0.8400
vn -0.3507 -0.7498 0.5611
vn -0.2995 0.8877 0.3498
vn -0.7010 -0.3051 0.6446
vn -0.8125 0.5030 0.2947
vn -0.4968 0.8678 -0.0125
vn -0.8517 0.4678 -0.2361
vn -0.4122 -0.2793 -0.8672
vn -0.2559 0.9283 -0.2696
vn -0.6437 0.4342 -0.6302
vn -0.5013 -0.2945 -0.8136
vn -0.1101 -0.6977 -0.7079
vn -0.1923 -0.8089 -0.5557
vn 0.0053 0.9988 -0.0483
vn -0.0550 0.1488 -0.9873
vn -0.0789 0.9968 -0.0105
vn 0.7626 -0.6199 0.1848
vn -0.0519 0.3447 -0.9373
usemtl Cloud_dark
s 1
f 27//25 28//25 29//25
f 30//26 31//26 32//26
f 29//27 33//27 34//27
f 34//28 31//28 30//28
f 29//29 35//29 33//29
f 34//30 33//30 36//30
f 37//31 38//31 39//31
f 38//32 40//32 41//32
f 41//33 40//33 32//33
f 42//34 32//34 40//34
f 43//35 27//35 44//35
f 44//36 45//36 42//36
f 32//37 45//37 30//37
f 27//38 30//38 45//38
f 46//39 47//39 48//39
f 49//40 50//40 51//40
f 52//41 53//41 49//41
f 49//42 53//42 50//42
f 47//43 54//43 48//43
f 50//44 55//44 47//44
f 50//45 53//45 56//45
f 56//46 57//46 50//46
f 55//47 58//47 59//47
f 54//48 60//48 61//48
f 60//49 62//49 61//49
f 63//50 64//50 65//50
f 66//51 67//51 63//51
f 68//52 65//52 64//52
f 69//53 70//53 68//53
f 71//54 72//54 70//54
f 73//55 74//55 75//55
f 70//56 76//56 68//56
f 68//57 76//57 65//57
f 75//58 74//58 72//58
f 77//59 78//59 64//59 67//59
f 76//60 72//60 79//60
f 74//61 80//61 72//61
f 65//62 79//62 63//62
f 80//63 63//63 79//63
f 81//64 66//64 80//64
f 82//65 83//65 84//65
f 85//66 86//66 87//66
f 83//67 88//67 84//67
f 89//68 90//68 82//68
f 86//69 90//69 89//69
f 82//70 90//70 83//70
f 86//71 91//71 90//71
f 92//72 91//72 86//72
f 83//73 90//73 93//73
f 91//74 94//74 90//74
f 90//75 94//75 93//75
f 93//76 94//76 95//76
f 91//77 95//77 94//77
f 92//78 96//78 91//78
f 97//79 98//79 88//79
f 98//80 84//80 88//80
f 87//81 82//81 99//81
f 100//82 101//82 102//82
f 33//83 103//83 104//83
f 104//84 87//84 99//84
f 104//85 105//86 87//87
f 99//88 98//88 106//88
f 107//89 85//89 105//89
f 100//90 108//90 101//90
f 107//91 92//91 85//91
f 108//92 109//92 107//92
f 110//93 98//93 111//93
f 110//94 111//94 112//94
f 97//95 96//95 113//95
f 96//96 114//96 113//96
f 108//97 100//97 115//97
f 114//98 51//98 113//98
f 114//99 49//99 51//99
f 46//100 112//100 111//100
f 110//101 112//101 116//101
f 38//102 37//102 116//102
f 101//103 103//103 35//103
f 117//104 118//104 119//104
f 119//105 35//105 43//105
f 120//106 121//106 119//106
f 62//107 60//107 122//107
f 121//108 123//108 124//108
f 121//109 124//109 52//109
f 122//110 60//110 125//110
f 122//111 125//111 78//111
f 124//112 123//112 56//112
f 58//113 56//113 126//113
f 127//114 128//114 123//114
f 58//115 129//115 59//115
f 128//116 130//116 126//116
f 130//117 131//117 129//117
f 125//118 64//118 78//118
f 132//119 64//119 125//119
f 128//120 133//120 134//120
f 128//121 134//121 130//121
f 135//122 81//122 73//122
f 66//123 81//123 136//123
f 67//124 66//124 77//124
f 81//125 117//125 136//125
f 118//126 117//126 135//126
f 117//127 43//127 136//127
f 131//128 130//128 73//128
f 27//129 34//129 30//129
f 27//130 29//130 34//130
f 43//131 35//131 28//131
f 28//132 35//132 29//132
f 31//133 39//133 41//133
f 31//134 34//134 36//134
f 37//135 31//135 36//135
f 31//136 37//136 39//136
f 38//137 41//137 39//137
f 32//138 42//138 45//138
f 44//139 27//139 45//139
f 43//140 28//140 27//140
f 41//141 32//141 31//141
f 61//142 62//142 46//142
f 46//143 48//143 61//143
f 51//144 50//144 47//144
f 53//145 52//145 124//145
f 61//146 48//146 54//146
f 47//147 55//147 54//147
f 53//148 124//148 56//148
f 50//149 57//149 55//149
f 57//150 58//150 55//150
f 58//151 57//151 56//151
f 54//152 55//152 59//152
f 54//153 59//153 60//153
f 63//154 67//154 64//154
f 68//155 64//155 132//155
f 132//156 137//156 69//156
f 68//157 132//157 69//157
f 132//158 131//158 137//158
f 75//159 131//159 73//159
f 137//160 131//160 71//160
f 137//161 71//161 70//161
f 137//162 70//162 69//162
f 131//163 75//163 71//163
f 71//164 75//164 72//164
f 70//165 72//165 76//165
f 76//166 79//166 65//166
f 72//167 80//167 79//167
f 81//168 74//168 73//168
f 80//169 74//169 81//169
f 80//170 66//170 63//170
f 87//171 89//171 82//171
f 87//172 86//172 89//172
f 86//173 85//173 92//173
f 83//174 93//174 88//174
f 95//175 97//175 93//175
f 95//176 91//176 96//176
f 93//177 97//177 88//177
f 97//178 95//178 96//178
f 98//179 99//179 84//179
f 99//180 82//180 84//180
f 37//181 36//181 106//181
f 33//182 104//182 36//182
f 36//183 104//183 106//183
f 101//184 105//184 103//184
f 104//85 103//185 105//86
f 104//186 99//186 106//186
f 101//187 108//187 105//187
f 105//188 108//188 107//188
f 106//189 98//189 110//189
f 85//190 87//190 105//190
f 107//191 109//191 92//191
f 92//192 109//192 96//192
f 111//193 98//193 97//193
f 96//194 109//194 114//194
f 97//195 113//195 111//195
f 109//196 108//196 115//196
f 109//197 115//197 114//197
f 114//198 115//198 49//198
f 111//199 113//199 51//199
f 46//200 111//200 51//200
f 52//201 49//201 115//201
f 115//202 100//202 121//202
f 52//203 115//203 121//203
f 46//204 62//204 112//204
f 112//205 62//205 116//205
f 62//206 38//206 116//206
f 106//207 116//207 37//207
f 116//208 106//208 110//208
f 35//209 102//209 101//209
f 78//210 40//210 122//210
f 43//211 117//211 119//211
f 40//212 38//212 122//212
f 102//213 35//213 119//213
f 118//214 120//214 119//214
f 38//215 62//215 122//215
f 102//216 119//216 121//216
f 121//217 120//218 127//219
f 121//217 127//219 123//220
f 125//221 60//221 59//221
f 56//222 123//222 126//222
f 123//223 128//223 126//223
f 125//224 59//224 129//224
f 58//225 126//225 129//225
f 120//226 133//226 127//226
f 126//227 130//227 129//227
f 129//228 132//228 125//228
f 128//229 127//229 133//229
f 129//230 131//230 132//230
f 130//231 134//231 73//231
f 134//232 133//232 135//232
f 73//233 134//233 135//233
f 42//234 77//234 136//234 44//234
f 133//235 118//235 135//235
f 81//236 135//236 117//236
f 66//237 136//237 77//237
f 40//238 77//238 42//238
f 77//239 40//239 78//239
f 118//240 133//240 120//240
f 136//241 43//241 44//241
f 102//242 121//242 100//242
f 47//243 46//243 51//243
f 33//244 35//244 103//244
