# Blender v2.79 (sub 0) OBJ File: 'weather.blend'
# www.blender.org
mtllib 11d.mtl
o 11d_cloud.003
v 2.994907 5.291745 -1.819628
v 3.180738 5.933002 -1.379630
v 3.777023 5.642926 -1.502233
v 3.329185 4.329991 -1.672039
v 3.688490 4.013519 -1.084615
v 2.763867 4.115812 -1.285159
v 4.294968 5.207797 -1.062891
v 3.949510 4.799923 -1.638550
v 3.737807 5.994085 -0.742856
v 4.205778 4.528364 -0.901922
v 3.787589 4.073047 -0.493857
v 3.342224 4.077582 -0.148645
v 3.410935 3.905375 -0.739281
v 2.636962 4.055439 -0.599867
v 3.017713 3.912818 -0.779173
v 2.219085 4.698087 -1.168321
v 2.853997 5.940697 -1.266669
v 2.303552 5.257806 -1.338943
v 2.828121 4.737949 -1.760077
v 3.911463 4.035941 1.226900
v 4.076051 4.475290 2.021496
v 3.771331 4.019166 1.616945
v 4.129305 5.693484 1.710513
v 3.896420 5.174428 2.312721
v 4.369578 4.746244 1.718942
v 3.712847 6.010368 1.439384
v 3.726208 5.838911 1.934650
v 3.139225 4.087459 1.929240
v 3.014989 4.456505 2.248641
v 3.017033 5.783485 2.017758
v 3.074715 5.295557 2.340340
v 2.568239 5.143336 2.085690
v 2.508293 4.411618 1.742025
v 2.925125 3.979388 1.137546
v 3.344239 3.894430 1.313741
v 3.333368 4.017872 0.757050
v 0.938706 4.246301 -0.485207
v 1.547945 3.997986 0.285880
v 0.825922 3.905836 0.351961
v 1.160573 5.184924 -0.717283
v 1.454611 4.319401 -0.403260
v 0.816238 4.025724 0.971334
v 0.811671 4.280626 1.215172
v 0.160236 4.713741 1.055249
v 0.352810 5.339227 1.196517
v -0.122133 5.026264 0.264850
v 0.870250 6.083982 0.483190
v 0.346026 5.877061 0.134971
v 0.340086 5.762157 0.845945
v 0.171636 4.280066 0.347696
v 1.770407 4.406708 -0.811341
v 2.256180 3.775085 -0.060015
v 0.388466 4.271291 -0.181800
v 0.424422 5.220181 -0.589225
v 0.939059 5.828856 -0.349456
v 5.527309 4.355381 -0.282349
v 5.729236 4.135130 0.238259
v 5.264259 4.051937 0.100097
v 5.429378 5.513235 0.016775
v 5.772292 5.381992 0.039766
v 5.300314 5.117145 -0.398029
v 5.299829 4.006652 0.531116
v 5.659719 4.820210 -0.354374
v 6.112988 4.801135 0.235825
v 5.771372 5.321502 0.787190
v 5.454020 5.573533 0.542507
v 5.730405 4.262518 0.800707
v 6.000655 4.837357 0.752689
v 5.534820 4.695905 1.176394
v 5.306170 5.098858 1.181142
v 5.070745 4.311671 1.003656
v 4.974783 4.045074 0.497745
v 5.046122 4.271125 -0.211995
v 4.193359 6.584425 0.509942
v 4.251341 6.415403 -0.387428
v 3.814493 6.550152 0.102044
v 4.534189 5.749206 -0.877035
v 4.936598 4.698713 -0.742883
v 5.039004 5.920078 -0.460220
v 4.273239 3.908885 -0.318115
v 5.249721 5.970986 0.030379
v 4.770887 6.448289 0.481298
v 4.968845 6.112227 1.073822
v 4.340429 3.769763 0.187931
v 4.568678 3.967310 1.029794
v 3.995730 3.790134 0.743638
v 4.823847 4.609545 1.487661
v 4.911883 5.598118 1.523740
v 4.180471 6.284429 1.300823
v 3.682654 3.805408 0.187043
v 1.981808 6.673605 -0.832474
v 2.585295 7.133850 -0.128705
v 3.271222 6.782588 -0.544340
v 2.891634 7.165287 0.554428
v 3.845512 6.559234 0.733688
v 2.830183 3.783993 0.160332
v 3.033289 6.553013 1.647661
v 3.376103 6.006114 1.757088
v 2.179941 3.854748 0.972394
v 2.112783 5.872983 2.058090
v 2.563338 7.066840 1.127864
v 1.690457 6.639204 1.465828
v 1.835863 4.643578 1.811424
v 1.190643 6.021527 1.473003
v 1.066577 5.517937 1.388597
v 1.415328 4.418139 1.247340
v 2.076798 7.165138 0.461811
v 1.208271 6.667267 0.419631
v 1.454622 6.799289 -0.207390
v 1.781731 5.615529 -1.255940
v 0.863221 4.821404 1.458943
vn 0.0936 0.5447 -0.8334
vn 0.0063 -0.8787 -0.4773
vn 0.7404 0.2522 -0.6230
vn 0.4918 -0.6046 -0.6266
vn 0.7386 0.6256 -0.2512
vn 0.8968 -0.2100 -0.3894
vn 0.2204 -0.9292 0.2966
vn -0.1868 -0.9227 0.3372
vn -0.4097 -0.8989 -0.1551
vn -0.7355 -0.6493 -0.1934
vn -0.5140 0.4889 -0.7048
vn -0.6884 -0.1144 -0.7162
vn -0.3164 -0.5547 -0.7695
vn 0.0700 -0.1275 -0.9894
vn 0.7063 -0.6713 0.2249
vn 0.8335 0.2160 0.5085
vn 0.4595 0.8430 0.2795
vn 0.5509 0.5148 0.6568
vn 0.2384 -0.7287 0.6420
vn 0.2031 -0.3316 0.9213
vn 0.0614 0.5054 0.8607
vn 0.1098 0.5572 0.8231
vn -0.6686 -0.2705 0.6927
vn -0.2757 -0.9396 0.2028
vn -0.1072 -0.9711 -0.2132
vn 0.0848 -0.9269 -0.3655
vn 0.1889 -0.2776 -0.9419
vn 0.1414 -0.9715 0.1903
vn -0.5388 -0.5874 0.6039
vn -0.8992 0.1875 0.3954
vn -0.4423 0.8859 0.1395
vn -0.6409 -0.6591 0.3936
vn -0.4910 -0.8567 0.1581
vn -0.8692 0.4892 0.0718
vn -0.3971 -0.8308 -0.3900
vn -0.8594 -0.3767 -0.3457
vn -0.8153 0.3822 -0.4350
vn -0.2571 -0.8826 -0.3936
vn -0.4667 -0.3339 -0.8189
vn -0.1311 0.4573 -0.8796
vn 0.2881 -0.8367 -0.4657
vn 0.2938 0.6440 -0.7064
vn 0.2091 -0.9706 -0.1192
vn 0.7506 -0.3047 -0.5863
vn 0.7708 0.2551 -0.5837
vn 0.7592 -0.4392 -0.4803
vn 0.8554 0.5162 0.0428
vn 0.5889 0.8055 0.0659
vn 0.8613 -0.4959 0.1105
vn 0.8958 0.4124 0.1658
vn 0.8895 -0.3997 0.2213
vn 0.6915 -0.2691 0.6704
vn 0.6134 0.2368 0.7534
vn 0.1459 0.7775 0.6117
vn -0.1515 -0.8623 0.4832
vn -0.1072 -0.9897 -0.0951
vn -0.1111 -0.1815 -0.9771
vn 0.1028 0.9787 -0.1777
vn 0.4943 0.0788 -0.8657
vn 0.8238 -0.3462 -0.4488
vn 0.6041 0.1312 -0.7861
vn 0.5982 0.1327 -0.7903
vn 0.5970 0.1330 -0.7911
vn 0.4387 -0.8680 -0.2324
vn 0.8489 0.3451 -0.4004
vn 0.2184 0.9615 -0.1670
vn 0.9266 0.3662 -0.0854
vn 0.7536 0.6471 0.1153
vn 0.3427 -0.9310 0.1255
vn 0.2138 -0.9624 0.1679
vn 0.7292 -0.3506 0.5877
vn 0.5925 -0.0820 0.8014
vn 0.2314 0.9084 0.3483
vn 0.4354 -0.0715 0.8974
vn 0.2396 0.0694 0.9684
vn 0.0450 -0.8872 0.4591
vn -0.0541 -0.9985 0.0030
vn -0.3102 -0.8675 -0.3888
vn 0.0525 0.6058 -0.7939
vn 0.0618 0.8102 -0.5828
vn 0.4341 0.4529 -0.7787
vn 0.5469 0.8311 -0.1005
vn 0.2457 -0.9548 0.1670
vn 0.6390 0.5149 0.5714
vn 0.5378 0.6135 0.5783
vn 0.1226 -0.9754 0.1831
vn -0.0137 -0.9970 0.0759
vn 0.3650 0.3972 0.8420
vn 0.0513 0.0697 0.9962
vn -0.0544 0.6851 0.7264
vn -0.0518 -0.4211 0.9056
vn -0.4526 0.3756 0.8087
vn -0.5005 -0.0218 0.8655
vn -0.2758 -0.9597 0.0537
vn -0.4986 -0.8174 0.2884
vn -0.4908 0.8351 0.2486
vn -0.7261 0.5916 0.3505
vn -0.8483 0.4826 -0.2180
vn -0.7057 0.1525 -0.6919
vn -0.6601 -0.4441 -0.6058
vn -0.6274 0.3887 -0.6747
vn -0.2380 0.8937 -0.3804
vn -0.1271 0.3892 -0.9123
vn -0.9330 0.1774 0.3132
vn 0.1328 -0.1051 -0.9856
vn 0.2854 0.2096 -0.9352
vn -0.0074 0.9960 -0.0891
vn 0.3402 0.8601 -0.3802
vn 0.0114 -0.9568 -0.2905
vn 0.7052 -0.5496 -0.4479
vn 0.7133 -0.6992 -0.0492
vn 0.3918 -0.9196 0.0269
vn -0.0460 -0.9604 0.2747
vn -0.6110 -0.4395 -0.6584
vn -0.5716 0.0844 -0.8162
vn -0.2498 0.5960 -0.7631
vn -0.0247 -0.9320 -0.3615
vn 0.2051 -0.9547 -0.2157
vn 0.2487 -0.9674 0.0477
vn 0.7504 -0.0804 0.6560
vn 0.2786 0.9099 0.3075
vn 0.0532 -0.9476 0.3149
vn 0.1762 -0.6096 0.7729
vn 0.0195 0.7468 0.6647
vn 0.0172 -0.1098 0.9938
vn -0.4319 -0.0675 0.8994
vn -0.5054 0.4335 0.7461
vn -0.5038 -0.6560 0.5620
vn -0.5000 -0.8296 0.2485
vn 0.1938 -0.8788 -0.4361
vn 0.3570 -0.8369 0.4150
vn 0.0459 -0.4142 0.9090
vn 0.1178 -0.6853 0.7186
vn 0.3525 -0.0084 0.9358
vn -0.1292 0.8280 0.5457
vn -0.2977 0.1816 0.9372
vn -0.4923 -0.0447 0.8693
vn -0.4296 -0.3367 0.8379
vn -0.3443 0.5930 0.7279
vn -0.8910 0.2735 0.3623
vn -0.9200 -0.3406 0.1940
vn -0.4870 -0.8535 -0.1853
vn -0.8011 -0.2103 -0.5604
vn -0.1700 0.9382 -0.3015
vn -0.4582 0.6331 -0.6239
vn -0.1772 -0.1966 -0.9644
vn -0.0052 -0.1517 -0.9884
vn 0.4614 0.4457 -0.7671
vn 0.3619 0.9241 -0.1229
vn 0.4042 -0.8923 0.2012
vn 0.1970 -0.5899 0.7831
vn 0.5325 0.2928 0.7942
vn 0.1177 -0.8073 0.5782
vn -0.2369 -0.1457 0.9605
vn -0.4109 -0.8559 -0.3139
vn 0.0525 -0.7996 -0.5983
vn 0.0328 -0.6836 -0.7291
vn 0.2620 -0.2549 -0.9308
vn 0.3027 -0.6360 -0.7098
vn 0.3436 0.6465 -0.6812
vn 0.6044 0.1312 -0.7858
vn 0.4004 -0.6716 -0.6235
vn 0.4830 0.8151 -0.3197
vn 0.5137 0.8024 -0.3039
vn 0.4969 -0.8177 -0.2908
vn 0.8409 0.2360 -0.4870
vn 0.7991 0.5857 0.1358
vn 0.8390 0.3255 0.4361
vn 0.5493 -0.7777 0.3056
vn 0.8198 0.3230 0.4728
vn 0.4639 -0.6290 0.6238
vn 0.3026 0.8689 0.3917
vn 0.3397 0.5978 0.7261
vn 0.2572 0.5354 0.8044
vn 0.1996 -0.6202 0.7586
vn 0.1619 -0.6304 0.7592
vn -0.0944 0.5727 0.8143
vn 0.1599 0.9221 0.3524
vn -0.2939 0.7805 0.5518
vn -0.2919 -0.8721 0.3927
vn -0.3185 -0.9354 0.1535
vn -0.5873 -0.8073 -0.0590
vn -0.1684 -0.9083 -0.3830
vn -0.0519 -0.9647 -0.2583
vn -0.3138 0.8060 -0.5020
vn 0.1551 -0.9172 -0.3669
vn 0.1233 0.6103 -0.7825
vn 0.2736 -0.8817 -0.3844
vn 0.7305 0.5381 -0.4205
vn 0.3487 0.9159 -0.1985
vn 0.4723 -0.8798 -0.0534
vn 0.4270 0.9036 -0.0340
vn 0.4402 0.8082 0.3912
vn 0.4402 0.8084 0.3908
vn 0.4403 0.8082 0.3910
vn 0.4408 0.8050 0.3972
vn 0.0062 -0.8114 0.5845
vn 0.0827 0.4305 0.8988
vn -0.0719 0.5849 0.8079
vn -0.1950 -0.7532 0.6282
vn -0.2679 -0.1311 0.9545
vn -0.0183 0.9871 0.1590
vn -0.5405 -0.0468 0.8400
vn -0.3507 -0.7498 0.5611
vn -0.2995 0.8877 0.3498
vn -0.7010 -0.3051 0.6446
vn -0.8125 0.5030 0.2947
vn -0.4968 0.8678 -0.0125
vn -0.8517 0.4678 -0.2361
vn -0.4122 -0.2793 -0.8672
vn -0.2559 0.9283 -0.2696
vn -0.6437 0.4342 -0.6302
vn -0.5013 -0.2945 -0.8136
vn -0.1101 -0.6977 -0.7079
vn -0.1923 -0.8089 -0.5557
vn 0.0053 0.9988 -0.0483
vn -0.0550 0.1488 -0.9873
vn -0.0789 0.9968 -0.0105
vn 0.7626 -0.6199 0.1848
vn -0.0519 0.3447 -0.9373
usemtl None
s 1
f 1//1 2//1 3//1
f 4//2 5//2 6//2
f 3//3 7//3 8//3
f 8//4 5//4 4//4
f 3//5 9//5 7//5
f 8//6 7//6 10//6
f 11//7 12//7 13//7
f 12//8 14//8 15//8
f 15//9 14//9 6//9
f 16//10 6//10 14//10
f 17//11 1//11 18//11
f 18//12 19//12 16//12
f 6//13 19//13 4//13
f 1//14 4//14 19//14
f 20//15 21//15 22//15
f 23//16 24//16 25//16
f 26//17 27//17 23//17
f 23//18 27//18 24//18
f 21//19 28//19 22//19
f 24//20 29//20 21//20
f 24//21 27//21 30//21
f 30//22 31//22 24//22
f 29//23 32//23 33//23
f 28//24 34//24 35//24
f 34//25 36//25 35//25
f 37//26 38//26 39//26
f 40//27 41//27 37//27
f 42//28 39//28 38//28
f 43//29 44//29 42//29
f 45//30 46//30 44//30
f 47//31 48//31 49//31
f 44//32 50//32 42//32
f 42//33 50//33 39//33
f 49//34 48//34 46//34
f 51//35 52//35 38//35 41//35
f 50//36 46//36 53//36
f 48//37 54//37 46//37
f 39//38 53//38 37//38
f 54//39 37//39 53//39
f 55//40 40//40 54//40
f 56//41 57//41 58//41
f 59//42 60//42 61//42
f 57//43 62//43 58//43
f 63//44 64//44 56//44
f 60//45 64//45 63//45
f 56//46 64//46 57//46
f 60//47 65//47 64//47
f 66//48 65//48 60//48
f 57//49 64//49 67//49
f 65//50 68//50 64//50
f 64//51 68//51 67//51
f 67//52 68//52 69//52
f 65//53 69//53 68//53
f 66//54 70//54 65//54
f 71//55 72//55 62//55
f 72//56 58//56 62//56
f 61//57 56//57 73//57
f 74//58 75//58 76//58
f 7//59 77//59 78//59
f 78//60 61//60 73//60
f 78//61 79//62 61//63
f 73//64 72//64 80//64
f 81//65 59//65 79//65
f 74//66 82//66 75//66
f 81//67 66//67 59//67
f 82//68 83//68 81//68
f 84//69 72//69 85//69
f 84//70 85//70 86//70
f 71//71 70//71 87//71
f 70//72 88//72 87//72
f 82//73 74//73 89//73
f 88//74 25//74 87//74
f 88//75 23//75 25//75
f 20//76 86//76 85//76
f 84//77 86//77 90//77
f 12//78 11//78 90//78
f 75//79 77//79 9//79
f 91//80 92//80 93//80
f 93//81 9//81 17//81
f 94//82 95//82 93//82
f 36//83 34//83 96//83
f 95//84 97//84 98//84
f 95//85 98//85 26//85
f 96//86 34//86 99//86
f 96//87 99//87 52//87
f 98//88 97//88 30//88
f 32//89 30//89 100//89
f 101//90 102//90 97//90
f 32//91 103//91 33//91
f 102//92 104//92 100//92
f 104//93 105//93 103//93
f 99//94 38//94 52//94
f 106//95 38//95 99//95
f 102//96 107//96 108//96
f 102//97 108//97 104//97
f 109//98 55//98 47//98
f 40//99 55//99 110//99
f 41//100 40//100 51//100
f 55//101 91//101 110//101
f 92//102 91//102 109//102
f 91//103 17//103 110//103
f 105//104 104//104 47//104
f 1//105 8//105 4//105
f 1//106 3//106 8//106
f 17//107 9//107 2//107
f 2//108 9//108 3//108
f 5//109 13//109 15//109
f 5//110 8//110 10//110
f 11//111 5//111 10//111
f 5//112 11//112 13//112
f 12//113 15//113 13//113
f 6//114 16//114 19//114
f 18//115 1//115 19//115
f 17//116 2//116 1//116
f 15//117 6//117 5//117
f 35//118 36//118 20//118
f 20//119 22//119 35//119
f 25//120 24//120 21//120
f 27//121 26//121 98//121
f 35//122 22//122 28//122
f 21//123 29//123 28//123
f 27//124 98//124 30//124
f 24//125 31//125 29//125
f 31//126 32//126 29//126
f 32//127 31//127 30//127
f 28//128 29//128 33//128
f 28//129 33//129 34//129
f 37//130 41//130 38//130
f 42//131 38//131 106//131
f 106//132 111//132 43//132
f 42//133 106//133 43//133
f 106//134 105//134 111//134
f 49//135 105//135 47//135
f 111//136 105//136 45//136
f 111//137 45//137 44//137
f 111//138 44//138 43//138
f 105//139 49//139 45//139
f 45//140 49//140 46//140
f 44//141 46//141 50//141
f 50//142 53//142 39//142
f 46//143 54//143 53//143
f 55//144 48//144 47//144
f 54//145 48//145 55//145
f 54//146 40//146 37//146
f 61//147 63//147 56//147
f 61//148 60//148 63//148
f 60//149 59//149 66//149
f 57//150 67//150 62//150
f 69//151 71//151 67//151
f 69//152 65//152 70//152
f 67//153 71//153 62//153
f 71//154 69//154 70//154
f 72//155 73//155 58//155
f 73//156 56//156 58//156
f 11//157 10//157 80//157
f 7//158 78//158 10//158
f 10//159 78//159 80//159
f 75//160 79//160 77//160
f 78//61 77//161 79//62
f 78//162 73//162 80//162
f 75//163 82//163 79//163
f 79//164 82//164 81//164
f 80//165 72//165 84//165
f 59//166 61//166 79//166
f 81//167 83//167 66//167
f 66//168 83//168 70//168
f 85//169 72//169 71//169
f 70//170 83//170 88//170
f 71//171 87//171 85//171
f 83//172 82//172 89//172
f 83//173 89//173 88//173
f 88//174 89//174 23//174
f 85//175 87//175 25//175
f 20//176 85//176 25//176
f 26//177 23//177 89//177
f 89//178 74//178 95//178
f 26//179 89//179 95//179
f 20//180 36//180 86//180
f 86//181 36//181 90//181
f 36//182 12//182 90//182
f 80//183 90//183 11//183
f 90//184 80//184 84//184
f 9//185 76//185 75//185
f 52//186 14//186 96//186
f 17//187 91//187 93//187
f 14//188 12//188 96//188
f 76//189 9//189 93//189
f 92//190 94//190 93//190
f 12//191 36//191 96//191
f 76//192 93//192 95//192
f 95//193 94//194 101//195
f 95//193 101//195 97//196
f 99//197 34//197 33//197
f 30//198 97//198 100//198
f 97//199 102//199 100//199
f 99//200 33//200 103//200
f 32//201 100//201 103//201
f 94//202 107//202 101//202
f 100//203 104//203 103//203
f 103//204 106//204 99//204
f 102//205 101//205 107//205
f 103//206 105//206 106//206
f 104//207 108//207 47//207
f 108//208 107//208 109//208
f 47//209 108//209 109//209
f 16//210 51//210 110//210 18//210
f 107//211 92//211 109//211
f 55//212 109//212 91//212
f 40//213 110//213 51//213
f 14//214 51//214 16//214
f 51//215 14//215 52//215
f 92//216 107//216 94//216
f 110//217 17//217 18//217
f 76//218 95//218 74//218
f 21//219 20//219 25//219
f 7//220 9//220 77//220
o lightning_cloud.005
v 2.780205 2.742894 0.043108
v 3.218657 3.761840 0.114484
v 2.780205 2.742894 -0.105619
v 3.218657 3.761840 -0.114484
v 3.180148 3.040550 0.119903
v 3.647007 3.758258 0.151159
v 3.180148 3.040550 -0.182415
v 3.647007 3.758258 -0.151159
v 3.227542 2.852543 -0.130609
v 3.227542 2.852543 0.068097
v 3.559537 3.028849 -0.111456
v 3.559537 3.028849 0.048945
v 2.931141 2.038912 -0.031256
v 1.896378 2.906291 0.043108
v 2.230850 3.680142 0.114484
v 1.896378 2.906291 -0.105619
v 2.230850 3.680142 -0.114484
v 2.296321 3.203947 0.119903
v 2.659201 3.676560 0.151159
v 2.296321 3.203947 -0.182415
v 2.659201 3.676560 -0.151159
v 2.336287 3.015939 -0.130609
v 2.336287 3.015939 0.068097
v 2.735126 3.325933 -0.111456
v 2.735126 3.325933 0.048945
v 2.106731 2.335996 -0.031256
vn -0.9186 0.3953 0.0000
vn -0.1703 0.1014 -0.9802
vn 0.8383 -0.5453 0.0000
vn -0.1409 0.0150 0.9899
vn 0.2381 -0.9712 0.0000
vn 0.0084 1.0000 0.0000
vn 0.1479 -0.1728 -0.9738
vn 0.0308 0.9995 0.0000
vn 0.0828 -0.2453 0.9659
vn 0.0828 -0.2453 -0.9659
vn 0.8443 -0.5359 0.0000
vn -0.9396 0.3423 0.0000
vn 0.1479 -0.1728 0.9738
vn -0.9179 0.3967 0.0000
vn -0.1749 0.1154 -0.9778
vn 0.7932 -0.6090 0.0000
vn -0.1333 -0.0070 0.9911
vn 0.2419 -0.9703 0.0000
vn 0.2092 -0.2102 -0.9550
vn -0.2678 0.9635 0.0000
vn 0.1140 -0.2413 0.9637
vn 0.1140 -0.2413 -0.9637
vn -0.9475 0.3199 0.0000
vn 0.2092 -0.2102 0.9550
usemtl Light
s off
f 112//221 113//221 115//221 114//221
f 114//222 115//222 119//222 118//222
f 118//223 119//223 117//223 116//223
f 116//224 117//224 113//224 112//224
f 112//225 114//225 120//225 121//225
f 119//226 115//226 113//226 117//226
f 120//227 122//227 124//227
f 118//228 116//228 123//228 122//228
f 116//229 112//229 121//229 123//229
f 114//230 118//230 122//230 120//230
f 122//231 123//231 124//231
f 121//232 120//232 124//232
f 123//233 121//233 124//233
f 125//234 126//234 128//234 127//234
f 127//235 128//235 132//235 131//235
f 131//236 132//236 130//236 129//236
f 129//237 130//237 126//237 125//237
f 125//238 127//238 133//238 134//238
f 132//226 128//226 126//226 130//226
f 133//239 135//239 137//239
f 131//240 129//240 136//240 135//240
f 129//241 125//241 134//241 136//241
f 127//242 131//242 135//242 133//242
f 135//231 136//231 137//231
f 134//243 133//243 137//243
f 136//244 134//244 137//244
